<svg width="29" height="48" viewBox="0 0 29 48" fill="none" xmlns="http://www.w3.org/2000/svg">
<path d="M5.39186 35.2742C6.04147 35.2742 6.69109 35.2858 7.3407 35.2626C7.70031 35.251 7.83951 35.367 7.86271 35.7382C8.10632 39.4735 10.7628 42.3851 14.4748 42.9999C18.9061 43.7423 23.1982 40.3203 23.4418 35.8542C23.465 35.3786 23.6274 35.2394 24.0799 35.251C25.3559 35.2742 26.6435 35.2626 27.9195 35.2626C28.2327 35.2626 28.3835 35.3438 28.372 35.7034C28.1979 41.3527 24.2075 46.2828 18.7089 47.6284C11.2036 49.4613 3.83743 44.3108 2.99061 36.643C2.95581 36.3182 2.96741 35.9818 2.93261 35.6454C2.90941 35.367 3.02541 35.2626 3.29221 35.2742C4.01143 35.2742 4.70744 35.2742 5.39186 35.2742Z" fill="#EE2A7B"/>
<path d="M13.037 10.6008C13.2342 9.30162 13.385 8.06039 13.6054 6.84236C13.8374 5.57794 14.0462 4.30191 14.4406 3.07228C14.9046 1.58745 15.9602 0.601434 17.4915 0.149024C18.6631 -0.187383 19.7071 0.0446227 20.5887 0.85664C22.062 2.23707 22.584 3.95391 22.062 5.90275C21.2847 8.86081 19.3011 10.8444 16.6214 12.1553C15.8906 12.5149 15.0438 12.6425 14.2434 12.8861C14.0694 12.9441 13.8838 13.0253 13.7562 13.1529C12.8398 14.1041 11.5753 14.3361 10.4617 13.6633C10.1717 13.4893 9.9977 13.5241 9.73089 13.6865C8.07206 14.7421 6.29722 15.4729 4.31358 15.3917C3.45516 15.3569 2.52714 15.1365 1.76152 14.7537C0.0214853 13.8837 -0.465725 12.0045 0.462295 10.2876C1.37871 8.5708 3.42036 7.71238 5.3576 8.3272C6.10001 8.5592 6.79603 8.98841 7.48044 9.38282C8.01406 9.69603 8.47807 10.102 8.98848 10.45C9.55689 10.8445 10.0905 11.1229 10.8213 10.6124C11.4129 10.1948 12.2017 10.3224 13.037 10.6008ZM13.5126 12.1553C15.415 11.6565 17.0158 10.9605 18.2455 9.60322C19.6027 8.09519 19.7187 5.79834 18.5471 4.15111C18.1063 3.5363 17.6191 3.46669 17.039 3.9655C16.7838 4.18591 16.517 4.42951 16.3894 4.73112C15.9254 5.72874 15.4266 6.72636 15.125 7.78198C14.719 9.23201 14.4406 10.7168 13.5126 12.1553ZM8.84927 13.2689C8.08366 13.0021 7.31804 12.7933 6.62203 12.4569C5.79841 12.0625 5.06759 11.4941 4.23238 11.1345C3.57116 10.8444 2.84035 10.6356 2.13273 10.6124C1.21631 10.5776 0.7059 11.3085 0.856703 12.2133C1.03071 13.2921 1.68032 14.0461 2.68954 14.3709C4.95159 15.1017 6.99323 14.4057 8.84927 13.2689Z" fill="#FC94FF"/>
<path d="M6.85017 12.5626C6.22375 13.189 5.66694 13.885 5.17973 14.6391C6.47896 14.4999 7.69698 13.9662 8.84541 13.2702C8.16099 13.0266 7.48818 12.841 6.85017 12.5626Z" fill="#EE2A7B"/>
<path d="M18.2565 9.60234C18.3609 9.48634 18.4537 9.37034 18.5465 9.24273C17.6184 9.02233 16.6672 8.90633 15.6696 8.90633C15.3912 8.90633 15.1012 8.91793 14.8228 8.94113C14.5328 10.0199 14.208 11.0988 13.5236 12.1544C15.426 11.6556 17.0268 10.9712 18.2565 9.60234Z" fill="#EE2A7B"/>
<path d="M20.02 9.70321C19.0919 10.7124 17.9435 11.5244 16.6211 12.1741C15.8903 12.5337 15.0435 12.6613 14.243 12.9049C14.069 12.9629 13.8834 13.0441 13.7558 13.1717C12.8394 14.1229 11.575 14.3549 10.4614 13.6821C10.1714 13.5081 9.99735 13.5429 9.73054 13.7053C8.19931 14.6797 6.54047 15.3757 4.73084 15.4105C3.77962 17.1738 3.2344 19.1806 3.2344 21.3266C3.2344 28.194 8.80252 33.7505 15.6583 33.7505C22.514 33.7505 28.0821 28.1824 28.0821 21.3266C28.0937 16.0137 24.7297 11.4664 20.02 9.70321ZM15.6699 29.0176C11.4358 29.0176 7.9905 25.5839 7.9905 21.3383C7.9905 17.1042 11.4242 13.6589 15.6699 13.6589C19.9156 13.6589 23.3492 17.0926 23.3492 21.3383C23.3376 25.5839 19.904 29.0176 15.6699 29.0176Z" fill="#EE2A7B"/>
<path d="M10.801 10.6371C11.4274 10.1963 12.2046 10.3239 13.0398 10.6023C13.1094 10.1035 13.179 9.62792 13.2486 9.14071C11.8218 9.41911 10.4878 9.94112 9.28133 10.6719C9.73374 10.9387 10.1978 11.0547 10.801 10.6371Z" fill="#EE2A7B"/>
</svg>
