<svg width="72" height="72" viewBox="0 0 72 72" fill="none" xmlns="http://www.w3.org/2000/svg">
<path d="M7.73999 57.0298L7.67999 57.0898C6.86999 55.3198 6.35999 53.3098 6.14999 51.0898C6.35999 53.2798 6.92999 55.2598 7.73999 57.0298Z" fill="#3D3D3D"/>
<path d="M27 31.1394C30.9433 31.1394 34.14 27.9427 34.14 23.9994C34.14 20.0561 30.9433 16.8594 27 16.8594C23.0567 16.8594 19.86 20.0561 19.86 23.9994C19.86 27.9427 23.0567 31.1394 27 31.1394Z" fill="#3D3D3D"/>
<path d="M48.57 6H23.43C12.51 6 6 12.51 6 23.43V48.57C6 51.84 6.57 54.69 7.68 57.09C10.26 62.79 15.78 66 23.43 66H48.57C59.49 66 66 59.49 66 48.57V41.7V23.43C66 12.51 59.49 6 48.57 6ZM61.11 37.5C58.77 35.49 54.99 35.49 52.65 37.5L40.17 48.21C37.83 50.22 34.05 50.22 31.71 48.21L30.69 47.37C28.56 45.51 25.17 45.33 22.77 46.95L11.55 54.48C10.89 52.8 10.5 50.85 10.5 48.57V23.43C10.5 14.97 14.97 10.5 23.43 10.5H48.57C57.03 10.5 61.5 14.97 61.5 23.43V37.83L61.11 37.5Z" fill="#3D3D3D"/>
</svg>
