<svg width="48" height="48" viewBox="0 0 48 48" fill="none" xmlns="http://www.w3.org/2000/svg">
<path d="M7.93994 36C7.93994 42 9.93994 44 15.9399 44H31.9399C37.9399 44 39.9399 42 39.9399 36V20H7.93994V27.68" stroke="#121212" stroke-width="3" stroke-miterlimit="10" stroke-linecap="round" stroke-linejoin="round"/>
<path d="M43 14V16C43 18.2 41.94 20 39 20H9C5.94 20 5 18.2 5 16V14C5 11.8 5.94 10 9 10H39C41.94 10 43 11.8 43 14Z" stroke="#121212" stroke-width="3" stroke-miterlimit="10" stroke-linecap="round" stroke-linejoin="round"/>
<path d="M23.2801 9.99891H12.2401C11.5601 9.25891 11.5801 8.11891 12.3001 7.39891L15.1401 4.55891C15.8801 3.81891 17.1001 3.81891 17.8401 4.55891L23.2801 9.99891Z" stroke="#121212" stroke-width="3" stroke-miterlimit="10" stroke-linecap="round" stroke-linejoin="round"/>
<path d="M35.74 9.99891H24.7L30.14 4.55891C30.88 3.81891 32.1 3.81891 32.84 4.55891L35.68 7.39891C36.4 8.11891 36.42 9.25891 35.74 9.99891Z" stroke="#121212" stroke-width="3" stroke-miterlimit="10" stroke-linecap="round" stroke-linejoin="round"/>
<path d="M17.8799 20V30.28C17.8799 31.88 19.6399 32.82 20.9799 31.96L22.8599 30.72C23.5399 30.28 24.3999 30.28 25.0599 30.72L26.8399 31.92C28.1599 32.8 29.9399 31.86 29.9399 30.26V20H17.8799Z" stroke="#121212" stroke-width="3" stroke-miterlimit="10" stroke-linecap="round" stroke-linejoin="round"/>
</svg>
