<svg width="360" height="360" viewBox="0 0 360 360" fill="none" xmlns="http://www.w3.org/2000/svg">
<path d="M238.018 120.939H121.982L107.503 48.9102H252.497L238.018 120.939Z" fill="#263238"/>
<path d="M118.39 51.25L97.02 196.568H262.98L241.61 51.25" fill="#FC94FF"/>
<mask id="mask0_9028_206963" style="mask-type:luminance" maskUnits="userSpaceOnUse" x="97" y="51" width="166" height="146">
<path d="M118.39 51.25L97.02 196.568H262.98L241.61 51.25" fill="white"/>
</mask>
<g mask="url(#mask0_9028_206963)">
<path opacity="0.3" d="M262.98 196.569H97.02L105.955 135.801H254.045L262.98 196.569Z" fill="black" fill-opacity="0.7"/>
</g>
<path d="M118.39 51.25L97.02 196.568H262.98L241.61 51.25" stroke="#263238" stroke-linecap="round" stroke-linejoin="round"/>
<path d="M237.096 51.25H122.904L103.104 196.568H256.896L237.096 51.25Z" fill="#263238"/>
<path d="M225.813 62.3248H163.829L163.109 60.7408C162.915 60.3109 162.602 59.9461 162.206 59.6906C161.81 59.435 161.348 59.2997 160.877 59.3008H146.822C146.44 59.3008 146.074 59.4525 145.804 59.7226C145.534 59.9926 145.382 60.3589 145.382 60.7408V62.3536H134.186C133.984 62.354 133.785 62.3991 133.602 62.4857C133.42 62.5723 133.259 62.6983 133.131 62.8546C133.003 63.0108 132.911 63.1935 132.862 63.3895C132.813 63.5854 132.808 63.7898 132.847 63.988L142.005 109.528H217.994L227.153 63.988C227.197 63.7878 227.196 63.5802 227.149 63.3806C227.102 63.181 227.011 62.9945 226.882 62.8348C226.754 62.6752 226.591 62.5464 226.406 62.4581C226.221 62.3698 226.018 62.3243 225.813 62.3248Z" fill="#BFBFBF" stroke="#263238" stroke-linecap="round" stroke-linejoin="round"/>
<path d="M228.154 65.8141L227.362 69.7453L219.226 110.202C219.109 110.81 218.784 111.357 218.307 111.752C217.83 112.146 217.231 112.362 216.612 112.362H143.388C142.77 112.362 142.17 112.146 141.693 111.752C141.217 111.357 140.892 110.81 140.775 110.202L132.48 68.7877L131.883 65.8141C131.844 65.6178 131.848 65.4152 131.896 65.2208C131.944 65.0264 132.034 64.8448 132.159 64.6889C132.285 64.5331 132.443 64.4067 132.623 64.3187C132.803 64.2307 133 64.1833 133.2 64.1797H226.8C227.004 64.178 227.205 64.2215 227.389 64.3072C227.573 64.3929 227.736 64.5186 227.866 64.6751C227.995 64.8316 228.088 65.0151 228.138 65.2121C228.188 65.4091 228.193 65.6148 228.154 65.8141Z" fill="white"/>
<mask id="mask1_9028_206963" style="mask-type:luminance" maskUnits="userSpaceOnUse" x="131" y="64" width="98" height="49">
<path d="M228.154 65.8141L227.362 69.7453L219.226 110.202C219.109 110.81 218.784 111.357 218.307 111.752C217.83 112.146 217.231 112.362 216.612 112.362H143.388C142.77 112.362 142.17 112.146 141.693 111.752C141.217 111.357 140.892 110.81 140.775 110.202L132.48 68.7877L131.883 65.8141C131.844 65.6178 131.848 65.4152 131.896 65.2208C131.944 65.0264 132.034 64.8448 132.159 64.6889C132.285 64.5331 132.443 64.4067 132.623 64.3187C132.803 64.2307 133 64.1833 133.2 64.1797H226.8C227.004 64.178 227.205 64.2215 227.389 64.3072C227.573 64.3929 227.736 64.5186 227.866 64.6751C227.995 64.8316 228.088 65.0151 228.138 65.2121C228.188 65.4091 228.193 65.6148 228.154 65.8141Z" fill="white"/>
</mask>
<g mask="url(#mask1_9028_206963)">
<path opacity="0.4" d="M227.362 69.7467L219.226 110.203C219.109 110.811 218.784 111.359 218.307 111.753C217.83 112.147 217.231 112.363 216.612 112.363H143.388C142.77 112.363 142.171 112.147 141.694 111.753C141.217 111.359 140.892 110.811 140.775 110.203L132.48 68.7891L227.362 69.7467Z" fill="#FC94FF"/>
</g>
<path d="M228.154 65.8141L227.362 69.7453L219.226 110.202C219.109 110.81 218.784 111.357 218.307 111.752C217.83 112.146 217.231 112.362 216.612 112.362H143.388C142.77 112.362 142.17 112.146 141.693 111.752C141.217 111.357 140.892 110.81 140.775 110.202L132.48 68.7877L131.883 65.8141C131.844 65.6178 131.848 65.4152 131.896 65.2208C131.944 65.0264 132.034 64.8448 132.159 64.6889C132.285 64.5331 132.443 64.4067 132.623 64.3187C132.803 64.2307 133 64.1833 133.2 64.1797H226.8C227.004 64.178 227.205 64.2215 227.389 64.3072C227.573 64.3929 227.736 64.5186 227.866 64.6751C227.995 64.8316 228.088 65.0151 228.138 65.2121C228.188 65.4091 228.193 65.6148 228.154 65.8141Z" stroke="#263238" stroke-linecap="round" stroke-linejoin="round"/>
<path d="M226.915 72.8137H163.44L162.72 71.2369C162.517 70.8041 162.194 70.4385 161.789 70.1834C161.385 69.9282 160.916 69.7941 160.438 69.7969H146.038C145.656 69.7969 145.29 69.9486 145.019 70.2187C144.749 70.4887 144.598 70.855 144.598 71.2369V72.8497H133.078C132.874 72.8471 132.672 72.89 132.486 72.9751C132.301 73.0603 132.137 73.1857 132.006 73.3421C131.875 73.4986 131.78 73.6823 131.729 73.8798C131.678 74.0773 131.671 74.2837 131.71 74.4841L141.07 119.887H218.88L228.24 74.4841C228.284 74.2847 228.283 74.0781 228.237 73.8792C228.191 73.6804 228.101 73.4942 227.974 73.3343C227.848 73.1743 227.687 73.0446 227.504 72.9546C227.32 72.8646 227.119 72.8164 226.915 72.8137Z" fill="#BFBFBF" stroke="#263238" stroke-linecap="round" stroke-linejoin="round"/>
<path d="M229.306 76.4275L228.514 80.2723L220.169 120.686C220.041 121.3 219.704 121.851 219.216 122.244C218.727 122.638 218.118 122.851 217.491 122.846H142.51C141.883 122.851 141.273 122.638 140.785 122.244C140.296 121.851 139.959 121.3 139.831 120.686L131.458 80.1355L130.695 76.4275C130.656 76.2271 130.663 76.0207 130.714 75.8231C130.765 75.6256 130.86 75.442 130.991 75.2855C131.122 75.129 131.286 75.0037 131.471 74.9185C131.657 74.8333 131.859 74.7905 132.063 74.7931H227.938C228.142 74.7905 228.344 74.8333 228.529 74.9185C228.715 75.0037 228.879 75.129 229.01 75.2855C229.141 75.442 229.235 75.6256 229.286 75.8231C229.338 76.0207 229.344 76.2271 229.306 76.4275Z" fill="white"/>
<mask id="mask2_9028_206963" style="mask-type:luminance" maskUnits="userSpaceOnUse" x="130" y="74" width="100" height="49">
<path d="M229.306 76.4275L228.514 80.2723L220.169 120.686C220.041 121.3 219.704 121.851 219.216 122.244C218.727 122.638 218.118 122.851 217.491 122.846H142.51C141.883 122.851 141.273 122.638 140.785 122.244C140.296 121.851 139.959 121.3 139.831 120.686L131.458 80.1355L130.695 76.4275C130.656 76.2271 130.663 76.0207 130.714 75.8231C130.765 75.6256 130.86 75.442 130.991 75.2855C131.122 75.129 131.286 75.0037 131.471 74.9185C131.657 74.8333 131.859 74.7905 132.063 74.7931H227.938C228.142 74.7905 228.344 74.8333 228.529 74.9185C228.715 75.0037 228.879 75.129 229.01 75.2855C229.141 75.442 229.235 75.6256 229.286 75.8231C229.338 76.0207 229.344 76.2271 229.306 76.4275Z" fill="white"/>
</mask>
<g mask="url(#mask2_9028_206963)">
<path opacity="0.4" d="M228.514 80.2735L220.169 120.687C220.041 121.301 219.704 121.852 219.216 122.246C218.728 122.64 218.118 122.852 217.491 122.847H142.51C141.883 122.852 141.273 122.64 140.785 122.246C140.297 121.852 139.96 121.301 139.832 120.687L131.458 80.1367L228.514 80.2735Z" fill="#FC94FF"/>
</g>
<path d="M229.306 76.4275L228.514 80.2723L220.169 120.686C220.041 121.3 219.704 121.851 219.216 122.244C218.727 122.638 218.118 122.851 217.491 122.846H142.51C141.883 122.851 141.273 122.638 140.785 122.244C140.296 121.851 139.959 121.3 139.831 120.686L131.458 80.1355L130.695 76.4275C130.656 76.2271 130.663 76.0207 130.714 75.8231C130.765 75.6256 130.86 75.442 130.991 75.2855C131.122 75.129 131.286 75.0037 131.471 74.9185C131.657 74.8333 131.859 74.7905 132.063 74.7931H227.938C228.142 74.7905 228.344 74.8333 228.529 74.9185C228.715 75.0037 228.879 75.129 229.01 75.2855C229.141 75.442 229.235 75.6256 229.286 75.8231C229.338 76.0207 229.344 76.2271 229.306 76.4275Z" stroke="#263238" stroke-linecap="round" stroke-linejoin="round"/>
<path d="M228.01 83.3065H163.058L162.338 81.7297C162.126 81.2929 161.795 80.9255 161.381 80.6705C160.968 80.4155 160.491 80.2834 160.006 80.2897H145.231C145.039 80.2839 144.847 80.3169 144.667 80.3867C144.487 80.4564 144.323 80.5616 144.185 80.6959C144.047 80.8302 143.937 80.9909 143.862 81.1685C143.787 81.3461 143.748 81.5369 143.748 81.7297V83.3353H131.99C131.785 83.3288 131.58 83.3684 131.391 83.4512C131.203 83.534 131.035 83.658 130.9 83.8139C130.766 83.9699 130.668 84.154 130.613 84.3527C130.559 84.5514 130.55 84.7598 130.586 84.9625L140.184 130.229H219.816L229.414 84.9625C229.455 84.7577 229.45 84.5462 229.398 84.3438C229.346 84.1414 229.248 83.9534 229.113 83.7941C228.978 83.6347 228.809 83.508 228.617 83.4235C228.426 83.3391 228.218 83.2991 228.01 83.3065Z" fill="#BFBFBF" stroke="#263238" stroke-linecap="round" stroke-linejoin="round"/>
<path d="M229.061 85.415H130.939C130.734 85.4085 130.531 85.4479 130.343 85.5303C130.155 85.6128 129.988 85.7362 129.854 85.8915C129.72 86.0468 129.623 86.2301 129.569 86.428C129.515 86.6258 129.506 86.8332 129.543 87.035L138.903 131.164C139.04 131.784 139.388 132.337 139.886 132.731C140.385 133.124 141.004 133.334 141.639 133.324H218.369C219.004 133.334 219.623 133.124 220.122 132.731C220.62 132.337 220.967 131.784 221.105 131.164L230.465 87.035C230.502 86.8326 230.493 86.6246 230.438 86.4261C230.384 86.2277 230.286 86.0441 230.151 85.8886C230.016 85.7332 229.849 85.6099 229.66 85.5279C229.471 85.446 229.267 85.4074 229.061 85.415Z" fill="white" stroke="#263238" stroke-linecap="round" stroke-linejoin="round"/>
<path d="M229.111 91.6368H162.67L161.914 90.0672C161.691 89.628 161.35 89.2602 160.928 89.0056C160.507 88.751 160.023 88.6199 159.53 88.6272H144.41C144.215 88.6164 144.019 88.6457 143.835 88.7132C143.651 88.7807 143.483 88.8851 143.341 89.0199C143.198 89.1547 143.085 89.3171 143.008 89.4972C142.931 89.6773 142.891 89.8712 142.891 90.0672V91.6728H130.889C130.681 91.6623 130.473 91.6986 130.282 91.779C130.09 91.8595 129.918 91.9819 129.78 92.1374C129.642 92.2929 129.54 92.4774 129.483 92.6774C129.426 92.8774 129.414 93.0877 129.449 93.2928L139.262 138.43H220.73L230.544 93.2928C230.585 93.0857 230.578 92.872 230.524 92.668C230.469 92.464 230.369 92.275 230.231 92.1154C230.093 91.9558 229.921 91.8298 229.726 91.7468C229.532 91.6639 229.322 91.6263 229.111 91.6368Z" fill="#BFBFBF" stroke="#263238" stroke-linecap="round" stroke-linejoin="round"/>
<path d="M230.184 93.865H129.816C129.608 93.8546 129.401 93.8909 129.209 93.9713C129.017 94.0517 128.846 94.1742 128.707 94.3297C128.569 94.4852 128.468 94.6697 128.41 94.8697C128.353 95.0696 128.341 95.2799 128.376 95.485L137.945 139.484C138.102 140.103 138.464 140.65 138.974 141.034C139.483 141.419 140.108 141.619 140.746 141.601H219.226C219.863 141.619 220.488 141.419 220.998 141.034C221.507 140.65 221.87 140.103 222.026 139.484L231.595 95.485C231.629 95.2824 231.618 95.0747 231.562 94.877C231.507 94.6792 231.408 94.4962 231.273 94.3413C231.138 94.1864 230.97 94.0633 230.782 93.9809C230.594 93.8986 230.389 93.859 230.184 93.865Z" fill="white" stroke="#263238" stroke-linecap="round" stroke-linejoin="round"/>
<path d="M230.206 99.9646H162.281L161.511 98.395C161.277 97.9523 160.925 97.5833 160.494 97.329C160.063 97.0747 159.57 96.9452 159.07 96.955H143.64C143.25 96.9354 142.868 97.0714 142.577 97.3333C142.287 97.5951 142.113 97.9614 142.092 98.3518V99.9502H129.795C129.59 99.9487 129.388 99.9908 129.201 100.074C129.014 100.157 128.846 100.278 128.71 100.431C128.574 100.584 128.472 100.764 128.41 100.959C128.349 101.154 128.33 101.36 128.355 101.563L138.391 146.563H221.638L231.675 101.563C231.697 101.359 231.676 101.152 231.612 100.956C231.548 100.761 231.443 100.581 231.304 100.43C231.165 100.278 230.995 100.158 230.805 100.078C230.616 99.998 230.411 99.9592 230.206 99.9646Z" fill="#BFBFBF" stroke="#263238" stroke-linecap="round" stroke-linejoin="round"/>
<path d="M231.3 102.327H128.7C128.493 102.318 128.287 102.355 128.097 102.436C127.906 102.516 127.736 102.638 127.598 102.792C127.46 102.947 127.358 103.13 127.3 103.328C127.242 103.527 127.228 103.736 127.26 103.94L129.665 114.74L137.038 147.81C137.209 148.435 137.587 148.985 138.11 149.369C138.632 149.753 139.269 149.949 139.918 149.926H220.126C220.774 149.949 221.411 149.753 221.934 149.369C222.457 148.985 222.834 148.435 223.006 147.81L226.606 131.588L232.769 103.947C232.803 103.74 232.79 103.527 232.73 103.326C232.671 103.124 232.567 102.939 232.425 102.783C232.284 102.627 232.11 102.505 231.915 102.426C231.72 102.347 231.51 102.314 231.3 102.327Z" fill="white"/>
<mask id="mask3_9028_206963" style="mask-type:luminance" maskUnits="userSpaceOnUse" x="127" y="102" width="106" height="48">
<path d="M231.3 102.327H128.7C128.493 102.318 128.287 102.355 128.097 102.436C127.906 102.516 127.736 102.638 127.598 102.792C127.46 102.947 127.358 103.13 127.3 103.328C127.242 103.527 127.228 103.736 127.26 103.94L129.665 114.74L137.038 147.81C137.209 148.435 137.587 148.985 138.11 149.369C138.632 149.753 139.269 149.949 139.918 149.926H220.126C220.774 149.949 221.411 149.753 221.934 149.369C222.457 148.985 222.834 148.435 223.006 147.81L226.606 131.588L232.769 103.947C232.803 103.74 232.79 103.527 232.73 103.326C232.671 103.124 232.567 102.939 232.425 102.783C232.284 102.627 232.11 102.505 231.915 102.426C231.72 102.347 231.51 102.314 231.3 102.327Z" fill="white"/>
</mask>
<g mask="url(#mask3_9028_206963)">
<path opacity="0.4" d="M129.636 114.734L137.009 147.804C137.181 148.43 137.558 148.979 138.081 149.363C138.604 149.747 139.241 149.944 139.889 149.921H220.126C220.774 149.944 221.411 149.747 221.934 149.363C222.457 148.979 222.834 148.43 223.006 147.804L226.606 131.582L129.636 114.734Z" fill="#FC94FF"/>
</g>
<path d="M231.3 102.327H128.7C128.493 102.318 128.287 102.355 128.097 102.436C127.906 102.516 127.736 102.638 127.598 102.792C127.46 102.947 127.358 103.13 127.3 103.328C127.242 103.527 127.228 103.736 127.26 103.94L129.665 114.74L137.038 147.81C137.209 148.435 137.587 148.985 138.11 149.369C138.632 149.753 139.269 149.949 139.918 149.926H220.126C220.774 149.949 221.411 149.753 221.934 149.369C222.457 148.985 222.834 148.435 223.006 147.81L226.606 131.588L232.769 103.947C232.803 103.74 232.79 103.527 232.73 103.326C232.671 103.124 232.567 102.939 232.425 102.783C232.284 102.627 232.11 102.505 231.915 102.426C231.72 102.347 231.51 102.314 231.3 102.327Z" stroke="#263238" stroke-linecap="round" stroke-linejoin="round"/>
<path d="M159.675 151.482L158.767 149.97C158.47 149.534 158.062 149.183 157.585 148.956C157.108 148.728 156.58 148.631 156.053 148.674L139.291 149.445C138.888 149.429 138.493 149.57 138.191 149.838C137.889 150.107 137.703 150.482 137.671 150.885L137.743 152.469L124.38 153.081C123.358 153.124 122.623 153.93 122.868 154.744L135.828 198.664L226.289 194.502L235.152 149.596C235.311 148.761 234.511 148.026 233.482 148.077L159.675 151.482Z" fill="#BFBFBF" stroke="#263238" stroke-linecap="round" stroke-linejoin="round"/>
<path d="M236.448 152.404L235.44 157.573L227.83 196.187C227.642 196.839 227.244 197.41 226.699 197.814C226.154 198.217 225.491 198.43 224.813 198.419L137.642 202.422C136.968 202.496 136.288 202.345 135.708 201.994C135.127 201.643 134.679 201.11 134.431 200.478L122.4 159.654L121.817 157.674C121.579 156.861 122.314 156.054 123.336 156.011L234.799 150.885C235.814 150.841 236.614 151.576 236.448 152.404Z" fill="white"/>
<mask id="mask4_9028_206963" style="mask-type:luminance" maskUnits="userSpaceOnUse" x="121" y="150" width="116" height="53">
<path d="M236.448 152.404L235.44 157.573L227.83 196.187C227.642 196.839 227.244 197.41 226.699 197.814C226.154 198.217 225.491 198.43 224.813 198.419L137.642 202.422C136.968 202.496 136.288 202.345 135.708 201.994C135.127 201.643 134.679 201.11 134.431 200.478L122.4 159.654L121.817 157.674C121.579 156.861 122.314 156.054 123.336 156.011L234.799 150.885C235.814 150.841 236.614 151.576 236.448 152.404Z" fill="white"/>
</mask>
<g mask="url(#mask4_9028_206963)">
<path opacity="0.4" d="M235.44 157.574L227.83 196.188C227.642 196.839 227.244 197.411 226.699 197.814C226.154 198.218 225.491 198.431 224.813 198.42L137.643 202.423C136.968 202.497 136.288 202.346 135.708 201.995C135.127 201.643 134.679 201.111 134.431 200.479L122.4 159.655L235.44 157.574Z" fill="#FC94FF"/>
</g>
<path d="M236.448 152.404L235.44 157.573L227.83 196.187C227.642 196.839 227.244 197.41 226.699 197.814C226.154 198.217 225.491 198.43 224.813 198.419L137.642 202.422C136.968 202.496 136.288 202.345 135.708 201.994C135.127 201.643 134.679 201.11 134.431 200.478L122.4 159.654L121.817 157.674C121.579 156.861 122.314 156.054 123.336 156.011L234.799 150.885C235.814 150.841 236.614 151.576 236.448 152.404Z" stroke="#263238" stroke-linecap="round" stroke-linejoin="round"/>
<path d="M161.597 161.503L160.827 159.919C160.561 159.453 160.179 159.064 159.716 158.791C159.254 158.518 158.728 158.371 158.191 158.364L141.12 157.471C140.711 157.409 140.294 157.508 139.958 157.749C139.621 157.99 139.393 158.353 139.32 158.76L139.241 160.337L125.619 159.617C124.575 159.559 123.754 160.287 123.912 161.115L132.718 205.963L224.971 210.787L238.399 167.105C238.644 166.291 237.903 165.485 236.859 165.435L161.597 161.503Z" fill="#BFBFBF" stroke="#263238" stroke-linecap="round" stroke-linejoin="round"/>
<path d="M239.443 170.153L237.283 177.266L226.383 212.733C226.12 213.368 225.657 213.899 225.064 214.244C224.471 214.59 223.781 214.732 223.099 214.649L134.201 210.005C133.515 210.015 132.844 209.801 132.291 209.396C131.737 208.99 131.331 208.415 131.134 207.758L123.61 169.404L122.559 164.04C122.393 163.212 123.221 162.485 124.265 162.542L237.903 168.482C238.947 168.54 239.695 169.346 239.443 170.153Z" fill="white"/>
<mask id="mask5_9028_206963" style="mask-type:luminance" maskUnits="userSpaceOnUse" x="122" y="162" width="118" height="53">
<path d="M239.443 170.153L237.283 177.266L226.383 212.733C226.12 213.368 225.657 213.899 225.064 214.244C224.471 214.59 223.781 214.732 223.099 214.649L134.201 210.005C133.515 210.015 132.844 209.801 132.291 209.396C131.737 208.99 131.331 208.415 131.134 207.758L123.61 169.404L122.559 164.04C122.393 163.212 123.221 162.485 124.265 162.542L237.903 168.482C238.947 168.54 239.695 169.346 239.443 170.153Z" fill="white"/>
</mask>
<g mask="url(#mask5_9028_206963)">
<path opacity="0.4" d="M237.255 177.265L226.354 212.732C226.091 213.366 225.628 213.897 225.035 214.243C224.442 214.589 223.752 214.731 223.071 214.647L134.172 210.003C133.486 210.013 132.816 209.8 132.262 209.394C131.709 208.989 131.302 208.414 131.105 207.757L123.581 169.402L237.255 177.265Z" fill="#FC94FF"/>
</g>
<path d="M239.443 170.153L237.283 177.266L226.383 212.733C226.12 213.368 225.657 213.899 225.064 214.244C224.471 214.59 223.781 214.732 223.099 214.649L134.201 210.005C133.515 210.015 132.844 209.801 132.291 209.396C131.737 208.99 131.331 208.415 131.134 207.758L123.61 169.404L122.559 164.04C122.393 163.212 123.221 162.485 124.265 162.542L237.903 168.482C238.947 168.54 239.695 169.346 239.443 170.153Z" stroke="#263238" stroke-linecap="round" stroke-linejoin="round"/>
<path d="M159.955 172.986L159.12 171.445C158.825 170.987 158.415 170.613 157.932 170.361C157.448 170.108 156.907 169.986 156.362 170.005H138.874C138.459 169.96 138.044 170.079 137.716 170.336C137.387 170.593 137.173 170.968 137.117 171.381V172.95H123.206C122.141 172.95 121.342 173.713 121.55 174.534L132.898 218.721H227.102L238.45 174.534C238.658 173.713 237.859 172.95 236.794 172.95L159.955 172.986Z" fill="#BFBFBF" stroke="#263238" stroke-linecap="round" stroke-linejoin="round"/>
<path d="M225.36 222.833H134.64C133.07 222.833 131.71 221.962 131.4 220.759L120.312 177.682C120.096 176.861 120.895 176.098 121.968 176.098H238.032C239.105 176.098 239.904 176.861 239.688 177.682L228.629 220.759C228.319 221.962 226.958 222.833 225.36 222.833Z" fill="white" stroke="#263238" stroke-linecap="round" stroke-linejoin="round"/>
<path d="M159.567 183.48L158.681 181.946C158.37 181.492 157.948 181.125 157.456 180.879C156.963 180.633 156.416 180.517 155.866 180.542H138.082C137.663 180.493 137.241 180.609 136.906 180.866C136.571 181.123 136.35 181.5 136.289 181.918V183.48H122.112C121.018 183.48 120.204 184.243 120.42 185.064L131.991 229.114H228.01L239.58 185.042C239.796 184.222 238.983 183.458 237.888 183.458L159.567 183.48Z" fill="#BFBFBF" stroke="#263238" stroke-linecap="round" stroke-linejoin="round"/>
<path d="M226.267 233.282H133.733C132.135 233.282 130.752 232.411 130.435 231.208L119.153 188.268C118.944 187.447 119.758 186.684 120.845 186.684H239.155C240.243 186.684 241.056 187.447 240.847 188.268L229.565 231.208C229.248 232.44 227.866 233.282 226.267 233.282Z" fill="white" stroke="#263238" stroke-linecap="round" stroke-linejoin="round"/>
<path d="M245.066 282.941H114.934L86.4504 202.164H273.55L245.066 282.941Z" fill="#FC94FF"/>
<mask id="mask6_9028_206963" style="mask-type:luminance" maskUnits="userSpaceOnUse" x="86" y="202" width="188" height="81">
<path d="M245.066 282.941H114.934L86.4504 202.164H273.55L245.066 282.941Z" fill="white"/>
</mask>
<g mask="url(#mask6_9028_206963)">
<path opacity="0.3" d="M245.066 282.941H114.934L86.4504 202.164H273.55L245.066 282.941Z" fill="black" fill-opacity="0.7"/>
</g>
<path d="M245.066 282.941H114.934L86.4504 202.164H273.55L245.066 282.941Z" stroke="#263238" stroke-linecap="round" stroke-linejoin="round"/>
<path d="M271.073 191.527H88.9272L86.4504 202.162H273.55L271.073 191.527Z" fill="#FC94FF" stroke="#263238" stroke-linecap="round" stroke-linejoin="round"/>
<path d="M134.834 239.172L133.013 256.416H226.987L225.166 239.172H221.018L222.199 251.477H137.801L138.981 239.172H134.834Z" fill="#BFBFBF" stroke="#263238" stroke-linecap="round" stroke-linejoin="round"/>
<path d="M226.281 260.374H133.718L133.013 256.414H226.987L226.281 260.374Z" fill="#757575" stroke="#263238" stroke-linecap="round" stroke-linejoin="round"/>
<path d="M221.018 239.172L220.442 243.744L221.018 251.477H222.199L221.018 239.172Z" fill="#757575" stroke="#263238" stroke-linecap="round" stroke-linejoin="round"/>
<path d="M138.982 239.172L139.565 243.744L138.982 251.477H137.801L138.982 239.172Z" fill="#757575" stroke="#263238" stroke-linecap="round" stroke-linejoin="round"/>
<path d="M210.283 230.517H149.717L146.83 215.887H213.17L210.283 230.517Z" fill="white" stroke="#263238" stroke-linecap="round" stroke-linejoin="round"/>
<path d="M167.343 225.316L167.746 219.117H169.589L170.129 227.721H168.941L168.516 221.644L168.106 227.721H166.911L165.471 221.731L166.011 227.721H164.88L164.045 219.117H165.888L167.343 225.316Z" fill="#263238"/>
<path d="M172.08 224.971L170.114 219.117H171.504L172.685 223.149L173.498 219.117H174.765L173.325 224.971L173.441 227.721H172.181L172.08 224.971Z" fill="#263238"/>
<path d="M178.56 223.056H180.238V224.28H178.582V227.721H177.322L177.178 219.117H180.72V220.406H178.56V223.056Z" fill="#263238"/>
<path d="M181.383 219.117H182.707L182.571 227.721H181.311L181.383 219.117Z" fill="#263238"/>
<path d="M183.679 219.117H185.04L184.817 226.548H186.898L186.847 227.721H183.521L183.679 219.117Z" fill="#263238"/>
<path d="M188.892 222.854H190.671L190.591 224.085H188.82L188.683 226.548H190.843L190.764 227.721H187.337L187.74 219.117H191.34L191.247 220.406H188.971L188.892 222.854Z" fill="#263238"/>
<path d="M194.004 219.016C195.3 219.016 195.883 219.836 195.746 221.269V221.543H194.508L194.544 221.176C194.602 220.542 194.378 220.297 193.961 220.297C193.543 220.297 193.284 220.542 193.241 221.176C193.198 221.809 193.406 222.292 194.191 223.076C195.178 224.07 195.451 224.776 195.358 225.733C195.228 227.065 194.515 227.814 193.284 227.814C192.053 227.814 191.462 227.094 191.556 225.733L191.599 225.222H192.809L192.758 225.82C192.708 226.417 192.946 226.626 193.349 226.626C193.752 226.626 194.026 226.417 194.069 225.82C194.112 225.222 193.91 224.754 193.133 223.984C192.132 222.99 191.837 222.27 191.916 221.269C191.988 219.836 192.715 219.016 194.004 219.016Z" fill="#263238"/>
<path d="M184.053 88.9397L183.463 87.2477C183.272 86.7658 182.951 86.3457 182.537 86.0333C182.124 85.7209 181.632 85.5283 181.116 85.4765L165.103 83.4101C164.705 83.334 164.293 83.4185 163.957 83.6451C163.621 83.8718 163.389 84.2222 163.31 84.6197L163.101 86.2397L150.343 84.5981C150.131 84.5537 149.911 84.5576 149.701 84.6098C149.491 84.662 149.295 84.7609 149.128 84.8994C148.961 85.0378 148.828 85.2121 148.738 85.4093C148.648 85.6065 148.603 85.8214 148.608 86.0381L153.151 132.939L239.551 144.077L255.837 99.8621C255.896 99.6542 255.907 99.4357 255.87 99.2228C255.832 99.01 255.748 98.8083 255.622 98.6326C255.496 98.457 255.332 98.3119 255.143 98.2082C254.953 98.1044 254.743 98.0447 254.527 98.0333L184.053 88.9397Z" fill="white"/>
<mask id="mask7_9028_206963" style="mask-type:luminance" maskUnits="userSpaceOnUse" x="148" y="83" width="108" height="62">
<path d="M184.053 88.9397L183.463 87.2477C183.272 86.7658 182.951 86.3457 182.537 86.0333C182.124 85.7209 181.632 85.5283 181.116 85.4765L165.103 83.4101C164.705 83.334 164.293 83.4185 163.957 83.6451C163.621 83.8718 163.389 84.2222 163.31 84.6197L163.101 86.2397L150.343 84.5981C150.131 84.5537 149.911 84.5576 149.701 84.6098C149.491 84.662 149.295 84.7609 149.128 84.8994C148.961 85.0378 148.828 85.2121 148.738 85.4093C148.648 85.6065 148.603 85.8214 148.608 86.0381L153.151 132.939L239.551 144.077L255.837 99.8621C255.896 99.6542 255.907 99.4357 255.87 99.2228C255.832 99.01 255.748 98.8083 255.622 98.6326C255.496 98.457 255.332 98.3119 255.143 98.2082C254.953 98.1044 254.743 98.0447 254.527 98.0333L184.053 88.9397Z" fill="white"/>
</mask>
<g mask="url(#mask7_9028_206963)">
<path opacity="0.4" d="M184.053 88.9397L183.463 87.2477C183.272 86.7658 182.951 86.3457 182.537 86.0333C182.124 85.7209 181.632 85.5283 181.116 85.4765L165.103 83.4101C164.705 83.334 164.293 83.4185 163.957 83.6451C163.621 83.8718 163.389 84.2222 163.31 84.6197L163.101 86.2397L150.343 84.5981C150.131 84.5537 149.911 84.5576 149.701 84.6098C149.491 84.662 149.295 84.7609 149.128 84.8994C148.961 85.0378 148.828 85.2121 148.738 85.4093C148.648 85.6065 148.603 85.8214 148.608 86.0381L153.151 132.939L239.551 144.077L255.837 99.8621C255.896 99.6542 255.907 99.4357 255.87 99.2228C255.832 99.01 255.748 98.8083 255.622 98.6326C255.496 98.457 255.332 98.3119 255.143 98.2082C254.953 98.1044 254.743 98.0447 254.527 98.0333L184.053 88.9397Z" fill="#FC94FF"/>
</g>
<path d="M184.053 88.9397L183.463 87.2477C183.272 86.7658 182.951 86.3457 182.537 86.0333C182.124 85.7209 181.632 85.5283 181.116 85.4765L165.103 83.4101C164.705 83.334 164.293 83.4185 163.957 83.6451C163.621 83.8718 163.389 84.2222 163.31 84.6197L163.101 86.2397L150.343 84.5981C150.131 84.5537 149.911 84.5576 149.701 84.6098C149.491 84.662 149.295 84.7609 149.128 84.8994C148.961 85.0378 148.828 85.2121 148.738 85.4093C148.648 85.6065 148.603 85.8214 148.608 86.0381L153.151 132.939L239.551 144.077L255.837 99.8621C255.896 99.6542 255.907 99.4357 255.87 99.2228C255.832 99.01 255.748 98.8083 255.622 98.6326C255.496 98.457 255.332 98.3119 255.143 98.2082C254.953 98.1044 254.743 98.0447 254.527 98.0333L184.053 88.9397Z" stroke="#263238" stroke-linecap="round" stroke-linejoin="round"/>
<path d="M256.666 102.52L241.92 142.559L240.782 145.641C240.516 146.255 240.051 146.762 239.463 147.081C238.874 147.399 238.195 147.511 237.535 147.398L154.267 136.655C153.6 136.597 152.972 136.316 152.484 135.858C151.995 135.399 151.675 134.79 151.574 134.128L147.146 88.4082C147.142 88.1914 147.186 87.9765 147.276 87.7793C147.366 87.5821 147.5 87.4078 147.666 87.2694C147.833 87.1309 148.029 87.032 148.24 86.9798C148.45 86.9276 148.669 86.9237 148.882 86.9682L219.744 96.1049L255.355 100.691C255.571 100.703 255.781 100.762 255.971 100.866C256.16 100.97 256.324 101.115 256.45 101.291C256.576 101.466 256.661 101.668 256.698 101.881C256.735 102.094 256.724 102.312 256.666 102.52Z" fill="white"/>
<mask id="mask8_9028_206963" style="mask-type:luminance" maskUnits="userSpaceOnUse" x="147" y="86" width="110" height="62">
<path d="M256.666 102.52L241.92 142.559L240.782 145.641C240.516 146.255 240.051 146.762 239.463 147.081C238.874 147.399 238.195 147.511 237.535 147.398L154.267 136.655C153.6 136.597 152.972 136.316 152.484 135.858C151.995 135.399 151.675 134.79 151.574 134.128L147.146 88.4082C147.142 88.1914 147.186 87.9765 147.276 87.7793C147.366 87.5821 147.5 87.4078 147.666 87.2694C147.833 87.1309 148.029 87.032 148.24 86.9798C148.45 86.9276 148.669 86.9237 148.882 86.9682L219.744 96.1049L255.355 100.691C255.571 100.703 255.781 100.762 255.971 100.866C256.16 100.97 256.324 101.115 256.45 101.291C256.576 101.466 256.661 101.668 256.698 101.881C256.735 102.094 256.724 102.312 256.666 102.52Z" fill="white"/>
</mask>
<g mask="url(#mask8_9028_206963)">
<path opacity="0.3" d="M256.665 102.522L241.92 142.561C231.473 140.091 231.077 133.583 229.327 130.213C227.397 126.498 215.165 124.525 211.745 123.927C208.325 123.33 206.244 119.867 206.244 119.867C203.162 111.227 219.247 103.667 219.247 103.667C218.93 102.479 219.398 98.5835 219.737 96.1211L255.348 100.707C255.563 100.718 255.772 100.777 255.961 100.88C256.151 100.982 256.314 101.126 256.441 101.3C256.567 101.474 256.653 101.674 256.692 101.885C256.731 102.097 256.722 102.314 256.665 102.522Z" fill="black" fill-opacity="0.7"/>
</g>
<path d="M256.666 102.52L241.92 142.559L240.782 145.641C240.516 146.255 240.051 146.762 239.463 147.081C238.874 147.399 238.195 147.511 237.535 147.398L154.267 136.655C153.6 136.597 152.972 136.316 152.484 135.858C151.995 135.399 151.675 134.79 151.574 134.128L147.146 88.4082C147.142 88.1914 147.186 87.9765 147.276 87.7793C147.366 87.5821 147.5 87.4078 147.666 87.2694C147.833 87.1309 148.029 87.032 148.24 86.9798C148.45 86.9276 148.669 86.9237 148.882 86.9682L219.744 96.1049L255.355 100.691C255.571 100.703 255.781 100.762 255.971 100.866C256.16 100.97 256.324 101.115 256.45 101.291C256.576 101.466 256.661 101.668 256.698 101.881C256.735 102.094 256.724 102.312 256.666 102.52Z" stroke="#263238" stroke-linecap="round" stroke-linejoin="round"/>
<path d="M162.806 100.727L163.944 129.023L174.197 130.347L175.406 102.152L162.806 100.727Z" fill="#FC94FF" stroke="#263238" stroke-linecap="round" stroke-linejoin="round"/>
<path d="M169.063 126.943C169.193 126.443 169.216 125.92 169.131 125.41C169.045 124.9 168.853 124.414 168.566 123.984C167.984 123.129 167.283 122.36 166.485 121.701C167.675 122.384 168.99 122.819 170.352 122.983C170.352 121.507 168.912 120.485 167.681 119.707C167.962 119.598 168.265 119.552 168.566 119.575C168.868 119.597 169.16 119.687 169.423 119.837C169.441 119.608 169.404 119.378 169.315 119.166C169.226 118.955 169.088 118.767 168.912 118.62C169.07 118.757 169.315 118.541 169.308 118.339C169.269 118.137 169.183 117.947 169.056 117.785C168.862 117.348 168.786 116.87 168.833 116.395C168.833 114.703 168.883 113.004 168.905 111.312C168.929 111.467 168.997 111.611 169.102 111.727C169.207 111.844 169.344 111.927 169.495 111.967C169.495 111.297 169.416 110.628 169.351 109.958C169.193 108.266 169.034 106.567 168.869 104.875" stroke="#263238" stroke-linecap="round" stroke-linejoin="round"/>
<path d="M331.92 192.729C331.92 192.729 273.816 140.745 270.115 137.469C266.414 134.193 263.707 134.337 261.713 132.342C259.718 130.348 258.717 128.93 250.603 129.066C242.489 129.203 231.66 124.797 229.241 123.227C226.821 121.658 223.401 122.802 221.119 121.917C218.837 121.031 213.005 121.809 209.441 121.917C205.877 122.025 205.596 118.389 207.021 114.256C208.447 110.123 219.261 107.567 220.701 108.417C222.141 109.266 227.822 106.854 227.822 106.854C226.965 103.859 227.253 96.5944 227.253 96.5944C227.253 96.5944 221.27 94.0312 218.995 93.1816C217.242 92.6529 215.405 92.46 213.581 92.6128C213.581 92.6128 214.301 89.344 215.431 88.1272C216.561 86.9104 221.983 85.7728 227.253 82.072C232.524 78.3712 235.8 77.5144 236.613 77.7952C237.427 78.076 243.309 79.7896 244.879 79.7896C246.449 79.7896 248.724 78.3496 250.999 78.796C253.274 79.2424 257.407 82.7848 259.257 83.2096C261.108 83.6344 261.677 84.0232 264.103 84.0232C265.169 84.0232 269.517 87.1984 269.517 87.1984C271.338 87.5462 273.109 88.1194 274.788 88.9048C277.488 90.1864 280.339 96.3136 281.621 98.308C282.902 100.302 283.061 105.141 283.061 105.141C283.061 105.141 286.481 106.991 287.762 109.554C289.044 112.118 336.24 137.469 336.24 137.469C336.24 137.469 343.677 166.622 331.92 192.729Z" fill="white"/>
<path opacity="0.4" d="M290.549 155.699C280.137 146.382 271.497 138.664 270.144 137.469C266.436 134.193 263.736 134.337 261.741 132.342C259.747 130.348 258.746 128.93 250.632 129.066C242.517 129.203 231.689 124.797 229.269 123.227C226.85 121.658 223.43 122.802 221.148 121.917C218.865 121.031 213.033 121.809 209.469 121.917C205.905 122.025 205.625 118.389 207.05 114.256C208.476 110.123 219.29 107.567 220.73 108.417C222.17 109.266 227.851 106.854 227.851 106.854C226.994 103.859 227.282 96.5944 227.282 96.5944C227.282 96.5944 221.299 94.0312 219.024 93.1816C217.271 92.6529 215.434 92.46 213.609 92.6128C213.609 92.6128 214.329 89.344 215.46 88.1272C216.59 86.9104 222.012 85.7728 227.282 82.072C232.553 78.3712 235.829 77.5144 236.642 77.7952C237.456 78.076 243.338 79.7896 244.908 79.7896C246.096 79.7896 247.701 78.9688 249.408 78.76C248.025 79.5304 247.068 80.9992 247.327 81.784C247.737 83.0224 248.897 86.176 248.961 86.3776C248.652 86.0752 241.185 78.7024 236.361 79.084C232.193 79.408 227.959 86.428 228.672 91.5832C229.385 96.7384 227.657 96.7384 228.593 100.583C229.529 104.428 230.378 109.842 228.953 111.981C227.527 114.119 224.683 110.318 224.683 110.318C223.615 110.904 222.72 111.76 222.088 112.802C221.456 113.843 221.11 115.033 221.083 116.25C221.083 120.383 225.403 120.664 227.952 121.096C230.501 121.528 239.904 126.676 246.326 126.95L252.749 127.216C252.749 127.216 249.041 122.176 250.589 121.917C252.137 121.658 256.853 122.118 259.949 126.957C263.045 131.795 265.421 132.868 271.159 135.244C274.55 136.605 283.493 146.26 290.549 155.699Z" fill="#FC94FF"/>
<path opacity="0.4" d="M319.003 128.087C318.132 127.676 290.203 114.515 288.799 112.549C287.395 110.584 285.667 110.101 284.097 108.121C282.528 106.141 277.265 104.86 276.552 102.152C275.839 99.4451 274.982 91.2299 273.672 90.2147C272.595 89.4244 271.453 88.7259 270.259 88.1267L272.376 93.4043C272.376 93.4043 267.552 86.5715 266.407 86.3843C265.262 86.1971 267.645 91.3523 267.437 91.1939C267.228 91.0355 262.001 86.1539 257.623 82.4531C258.143 82.7666 258.702 83.0088 259.286 83.1731C261.144 83.5979 261.705 83.9867 264.132 83.9867C265.197 83.9867 269.546 87.1619 269.546 87.1619C271.367 87.5097 273.138 88.0829 274.817 88.8683C277.517 90.1499 280.368 96.2771 281.649 98.2715C282.931 100.266 283.089 105.104 283.089 105.104C283.089 105.104 286.509 106.955 287.791 109.518C288.561 111.073 305.402 120.584 319.003 128.087Z" fill="#FC94FF"/>
<path d="M331.92 192.729C331.92 192.729 273.816 140.745 270.115 137.469C266.414 134.193 263.707 134.337 261.713 132.342C259.718 130.348 258.717 128.93 250.603 129.066C242.489 129.203 231.66 124.797 229.241 123.227C226.821 121.658 223.401 122.802 221.119 121.917C218.837 121.031 213.005 121.809 209.441 121.917C205.877 122.025 205.596 118.389 207.021 114.256C208.447 110.123 219.261 107.567 220.701 108.417C222.141 109.266 227.822 106.854 227.822 106.854C226.965 103.859 227.253 96.5944 227.253 96.5944C227.253 96.5944 221.27 94.0312 218.995 93.1816C217.242 92.6529 215.405 92.46 213.581 92.6128C213.581 92.6128 214.301 89.344 215.431 88.1272C216.561 86.9104 221.983 85.7728 227.253 82.072C232.524 78.3712 235.8 77.5144 236.613 77.7952C237.427 78.076 243.309 79.7896 244.879 79.7896C246.449 79.7896 248.724 78.3496 250.999 78.796C253.274 79.2424 257.407 82.7848 259.257 83.2096C261.108 83.6344 261.677 84.0232 264.103 84.0232C265.169 84.0232 269.517 87.1984 269.517 87.1984C271.338 87.5462 273.109 88.1194 274.788 88.9048C277.488 90.1864 280.339 96.3136 281.621 98.308C282.902 100.302 283.061 105.141 283.061 105.141C283.061 105.141 286.481 106.991 287.762 109.554C289.044 112.118 336.24 137.469 336.24 137.469" stroke="#263238" stroke-linecap="round" stroke-linejoin="round"/>
<path d="M227.275 96.594C227.275 96.594 227.937 90.9924 227.275 90.2148" stroke="#263238" stroke-linecap="round" stroke-linejoin="round"/>
<path d="M244.836 82.8789C244.836 82.8789 254.527 91.0797 255.283 91.5837" stroke="#263238" stroke-linecap="round" stroke-linejoin="round"/>
<path d="M253.937 80.1211C255.269 80.9491 266.011 90.4747 269.525 92.6563" stroke="#263238" stroke-linecap="round" stroke-linejoin="round"/>
<path d="M283.104 105.121C282.06 104.509 279.302 103.177 279.021 102.133" stroke="#263238" stroke-linecap="round" stroke-linejoin="round"/>
<path d="M227.844 106.855C227.844 106.855 228.413 109.181 227.844 110.319" stroke="#263238" stroke-linecap="round" stroke-linejoin="round"/>
<path d="M219.297 114.211C219.297 114.211 217.972 117.912 221.104 120.381" stroke="#263238" stroke-linecap="round" stroke-linejoin="round"/>
<path d="M232.214 79.0859C231.216 80.1323 230.554 81.454 230.313 82.8803" stroke="#263238" stroke-linecap="round" stroke-linejoin="round"/>
<path d="M217.44 90.2148C217.755 91.0724 218.247 91.8538 218.885 92.5077C219.522 93.1616 220.291 93.6734 221.141 94.0092" stroke="#263238" stroke-linecap="round" stroke-linejoin="round"/>
<path d="M260.028 130.76C258.177 128.076 256.141 125.523 253.937 123.121" stroke="#263238" stroke-linecap="round" stroke-linejoin="round"/>
<path d="M60.8328 320.621C60.8328 320.621 107.345 290.05 110.189 286.105C111.649 283.977 113.371 282.041 115.315 280.345C115.315 280.345 116.647 268.947 120.067 263.065C123.487 257.182 124.812 252.805 126.331 249.766C127.85 246.728 135.065 244.453 137.131 243.286C139.198 242.12 142.834 239.866 144.922 239.866C146.516 239.993 148.067 240.447 149.479 241.198C149.479 241.198 156.506 237.598 159.732 239.866C159.732 239.866 167.71 240.248 169.603 240.053C171.497 239.859 174.355 241.198 174.355 241.198C174.355 241.198 179.1 237.785 182.326 239.11C185.551 240.435 187.092 241.004 187.178 242.905C187.265 244.805 186.379 251.257 186.379 251.257H184.795C184.795 251.257 179.482 258.176 178.913 259.558C178.344 260.941 175.313 268.537 175.313 268.537C175.313 268.537 179.294 265.498 181.793 263.223C184.291 260.948 188.633 256.577 193.19 255.44C197.748 254.302 200.974 256.844 200.974 259.558C200.974 259.558 195.66 263.792 194.494 265.124C193.327 266.456 191.297 269.869 189.007 272.324C186.718 274.779 181.44 285.118 176.846 290.05C172.253 294.982 152.366 305.617 147.787 307.136C147.787 307.136 120.067 326.504 107.914 342.833C107.914 342.833 74.88 343.028 60.8328 320.621Z" fill="white"/>
<path opacity="0.4" d="M151.02 302.959C151.416 303.362 153.036 303.607 155.34 303.679C152.901 304.989 150.386 306.153 147.809 307.164C147.809 307.164 129.679 319.829 116.316 333.314C120.917 325.992 129.751 316.855 133.034 314.954C137.606 312.29 146.39 303.694 146.39 303.694C146.39 303.694 149.702 301.627 151.02 302.959Z" fill="#FC94FF"/>
<path opacity="0.4" d="M181.778 263.273C183.723 261.362 185.807 259.598 188.014 257.996C185.67 260.568 183.763 263.506 182.369 266.693C181.49 271.467 173.254 281.309 173.254 281.309C175.91 272.77 173.628 271.057 174.377 268.587C175.126 266.117 175.608 260.062 175.608 260.062C175.608 260.062 177.048 257.578 178.567 257.009C180.086 256.441 184.075 246.375 184.817 245.014C185.558 243.653 179.899 241.414 178.38 241.249C176.861 241.083 176.292 243.711 173.254 245.014C170.215 246.317 166.399 248.708 164.995 250.105C163.591 251.501 161.15 257.679 160.992 258.061C161.1 257.629 162.821 250.695 163.267 249.313C163.642 248.161 167.292 246.037 168.646 245.281C166.399 246.325 165.139 244.345 163.267 242.545C161.258 240.615 158.263 240.003 154.987 241.004C151.711 242.005 149.515 244.474 149.501 244.287C149.486 244.1 144.605 243.243 143.021 243.711C141.437 244.179 137.779 245.835 137.779 245.835C137.779 245.835 134.453 243.92 128.988 249.313C126.706 251.566 119.11 268.753 120.247 266.693C121.385 264.634 126.346 258.485 126.655 258.104C126.324 258.91 116.251 281.518 114.192 282.958C112.133 284.398 111.535 289.496 104.112 293.679C97.0704 297.646 69.912 314.717 67.2192 316.409C80.1 307.849 108 289.136 110.16 286.105C111.62 283.977 113.342 282.041 115.286 280.345C115.286 280.345 116.618 268.947 120.038 263.065C123.458 257.182 124.783 252.805 126.302 249.766C127.822 246.728 135.036 244.453 137.102 243.286C139.169 242.12 142.805 239.866 144.893 239.866C146.487 239.993 148.038 240.447 149.45 241.198C149.45 241.198 156.478 237.598 159.703 239.866C159.703 239.866 167.681 240.248 169.574 240.053C171.468 239.859 174.326 241.198 174.326 241.198C174.326 241.198 179.071 237.785 182.297 239.11C185.522 240.435 187.063 241.004 187.15 242.905C187.236 244.805 186.35 251.257 186.35 251.257H184.766C184.766 251.257 179.453 258.176 178.884 259.558C178.315 260.941 175.284 268.537 175.284 268.537C175.284 268.537 179.28 265.549 181.778 263.273Z" fill="#FC94FF"/>
<path opacity="0.4" d="M200.959 259.607C200.959 259.607 195.646 263.841 194.479 265.173C193.795 265.972 192.78 267.527 191.599 269.176C192.192 267.251 192.599 265.274 192.816 263.272C193.936 261.638 195.525 260.383 197.374 259.672C198.541 259.328 199.768 259.235 200.974 259.398C200.975 259.468 200.971 259.538 200.959 259.607Z" fill="#FC94FF"/>
<path d="M60.8328 320.621C60.8328 320.621 107.345 290.05 110.189 286.105C111.649 283.977 113.371 282.041 115.315 280.345C115.315 280.345 116.647 268.947 120.067 263.065C123.487 257.182 124.812 252.805 126.331 249.766C127.85 246.728 135.065 244.453 137.131 243.286C139.198 242.12 142.834 239.866 144.922 239.866C146.516 239.993 148.067 240.447 149.479 241.198C149.479 241.198 156.506 237.598 159.732 239.866C159.732 239.866 167.71 240.248 169.603 240.053C171.497 239.859 174.355 241.198 174.355 241.198C174.355 241.198 179.1 237.785 182.326 239.11C185.551 240.435 187.092 241.004 187.178 242.905C187.265 244.805 186.379 251.257 186.379 251.257H184.795C184.795 251.257 179.482 258.176 178.913 259.558C178.344 260.941 175.313 268.537 175.313 268.537C175.313 268.537 179.294 265.498 181.793 263.223C184.291 260.948 188.633 256.577 193.19 255.44C197.748 254.302 200.974 256.844 200.974 259.558C200.974 259.558 195.66 263.792 194.494 265.124C193.327 266.456 191.297 269.869 189.007 272.324C186.718 274.779 181.44 285.118 176.846 290.05C172.253 294.982 152.366 305.617 147.787 307.136C147.787 307.136 120.067 326.504 107.914 342.833" stroke="#263238" stroke-linecap="round" stroke-linejoin="round"/>
<path d="M175.327 268.559C175.327 268.559 176.465 274.261 174.182 279.359" stroke="#263238" stroke-linecap="round" stroke-linejoin="round"/>
<path d="M167.918 245.613C170.305 244.527 172.495 243.053 174.398 241.25" stroke="#263238" stroke-linecap="round" stroke-linejoin="round"/>
<path d="M184.817 251.278C185.43 250.022 185.847 248.679 186.055 247.297" stroke="#263238" stroke-linecap="round" stroke-linejoin="round"/>
<path d="M159.753 239.916C157.444 239.865 155.19 240.63 153.389 242.076" stroke="#263238" stroke-linecap="round" stroke-linejoin="round"/>
<path d="M149.501 241.25C149.501 241.25 143.806 243.907 141.811 243.907C139.817 243.907 136.584 246.564 136.584 247.327" stroke="#263238" stroke-linecap="round" stroke-linejoin="round"/>
<path d="M115.315 280.367C116.997 277.782 118.37 275.007 119.405 272.102" stroke="#263238" stroke-linecap="round" stroke-linejoin="round"/>
<path d="M169.149 247.324C169.149 247.324 165.549 248.267 164.311 251.306C163.073 254.344 157.377 264.885 157.377 264.885" stroke="#263238" stroke-linecap="round" stroke-linejoin="round"/>
<path d="M151.02 245.613C150.257 247.42 141.71 263.275 141.71 263.275" stroke="#263238" stroke-linecap="round" stroke-linejoin="round"/>
</svg>
