<svg width="289" height="221" viewBox="0 0 289 221" fill="none" xmlns="http://www.w3.org/2000/svg">
<path d="M47.2266 -29.6957C35.0466 -17.3396 25.8266 -2.04895 18.9966 14.1272C7.25658 41.9284 4.34657 78.8113 26.7066 98.5604C39.7866 110.082 58.2566 112.523 75.4566 111.833C92.6566 111.143 109.887 107.848 126.987 109.918C144.087 111.987 161.827 120.904 168.457 137.266C173.457 149.55 171.387 163.883 176.097 176.28C184.507 198.398 208.827 214.543 231.357 209.446C253.887 204.349 276.167 181.696 295.587 168.887C324.957 149.498 358.527 133.816 393.357 135.742" stroke="#EE2A7B" stroke-width="20" stroke-linecap="round" stroke-linejoin="round"/>
<path d="M108.927 -52.5134C86.5266 -32.9496 37.9266 21.8703 56.7966 55.5097C60.8766 62.7998 68.4966 67.4539 76.4266 69.4824C95.2366 74.2909 115.107 68.0614 134.077 67.9276C152.867 67.7937 170.217 72.7773 184.167 86.0807C202.167 103.225 192.617 136.463 211.857 153.792C233.727 173.469 260.097 147.49 274.607 132.303C308.137 97.2218 352.997 88.6755 399.377 90.3744" stroke="#FDB8FF" stroke-width="22" stroke-linecap="round" stroke-linejoin="round"/>
</svg>
