<svg width="234" height="97" viewBox="0 0 234 97" fill="none" xmlns="http://www.w3.org/2000/svg">
<path d="M88.6649 26.3304L81.0149 32.4163C80.1041 33.2003 79.6001 34.2504 79.6115 35.3404C79.6229 36.4304 80.1488 37.473 81.0758 38.2437C82.0028 39.0145 83.2569 39.4517 84.5679 39.4611C85.8789 39.4706 87.1419 39.0516 88.0849 38.2944L95.7349 32.1918C96.6456 31.4078 97.1496 30.3577 97.1382 29.2678C97.1268 28.1778 96.601 27.1351 95.6739 26.3644C94.7469 25.5936 93.4928 25.1565 92.1819 25.147C90.8709 25.1375 89.6079 25.5565 88.6649 26.3137V26.3304Z" fill="#E1E8F2"/>
<path d="M70.2647 45.9523L58.4048 57.2761C54.1948 61.2918 61.2447 67.2031 65.4747 63.1542L77.3347 51.8304C81.5447 47.8147 74.4947 41.9034 70.2647 45.9523Z" fill="#E1E8F2"/>
<path d="M43.7049 71.6423C42.6165 73.7724 41.0134 75.6939 38.9949 77.2876C38.0841 78.0716 37.5801 79.1217 37.5915 80.2117C37.6029 81.3016 38.1287 82.3442 39.0558 83.115C39.9828 83.8857 41.2369 84.323 42.5478 84.3324C43.8588 84.3419 45.1218 83.9229 46.0648 83.1656C49.274 80.5318 51.7607 77.3526 53.3548 73.8456C54.3548 71.7587 52.2648 69.2811 49.8648 68.7324C47.0249 68.0839 44.7149 69.5638 43.7149 71.634L43.7049 71.6423Z" fill="#E1E8F2"/>
<path d="M66.6448 71.8588L62.1348 78.086C61.7483 78.5583 61.483 79.0917 61.3555 79.6531C61.2279 80.2144 61.2409 80.7915 61.3936 81.3485C61.5462 81.9055 61.8353 82.4303 62.2428 82.8902C62.6503 83.3501 63.1675 83.7353 63.762 84.0217C64.3565 84.308 65.0156 84.4895 65.6982 84.5546C66.3808 84.6198 67.0722 84.5673 67.7293 84.4004C68.3864 84.2335 68.9951 83.9558 69.5174 83.5847C70.0396 83.2135 70.4643 82.7568 70.7648 82.2431L75.2748 76.0158C75.6614 75.5436 75.9267 75.0101 76.0542 74.4488C76.1818 73.8875 76.1688 73.3103 76.0161 72.7534C75.8634 72.1964 75.5743 71.6716 75.1668 71.2117C74.7593 70.7517 74.2422 70.3666 73.6477 70.0802C73.0532 69.7938 72.3941 69.6124 71.7115 69.5472C71.0289 69.4821 70.3375 69.5345 69.6804 69.7014C69.0233 69.8683 68.4146 70.146 67.8923 70.5172C67.37 70.8884 66.9454 71.3451 66.6448 71.8588Z" fill="#E1E8F2"/>
<path d="M92.8148 49.7355L82.6048 59.9119C80.8748 61.633 80.6048 64.069 82.6048 65.79C84.3848 67.2699 87.9348 67.5194 89.6748 65.79L99.8848 55.6135C101.615 53.8925 101.885 51.4565 99.8848 49.7355C98.1048 48.2556 94.5548 48.0062 92.8148 49.7355Z" fill="#E1E8F2"/>
<path d="M112.015 30.4874L103.115 35.5923C101.996 36.1684 101.186 37.0799 100.853 38.1383C100.52 39.1968 100.689 40.3212 101.325 41.279C102.615 43.1081 105.935 44.0477 108.165 42.7673L117.065 37.6625C118.184 37.0863 118.993 36.1748 119.326 35.1164C119.66 34.0579 119.491 32.9335 118.855 31.9756C117.565 30.1465 114.245 29.2071 112.015 30.4874Z" fill="#E1E8F2"/>
<path d="M132.515 17.46C127.886 17.1609 123.28 18.2361 119.515 20.4946C117.345 21.8165 116.255 24.1029 117.725 26.1814C118.985 27.9689 122.375 29.0081 124.565 27.6696C126.835 26.1986 129.703 25.5189 132.565 25.774C135.255 25.9569 137.565 23.7288 137.565 21.617C137.539 20.5211 137.004 19.4761 136.072 18.7011C135.14 17.926 133.883 17.4812 132.565 17.46H132.515Z" fill="#E1E8F2"/>
<path d="M66.8649 29.0829L62.4049 31.627C60.2549 32.8575 59.0749 35.3351 60.6149 37.3139C61.9949 39.0931 65.1549 40.124 67.4548 38.8021L71.9148 36.258C74.0648 35.0275 75.2448 32.5498 73.7048 30.5711C72.3248 28.7919 69.1648 27.7609 66.8649 29.0829Z" fill="#E1E8F2"/>
<path d="M28.0148 72.0588L24.9348 75.7502C24.2653 76.7017 24.0777 77.8353 24.4134 78.9018C24.7491 79.9682 25.5805 80.8802 26.7248 81.437C27.8769 81.9657 29.2293 82.106 30.5024 81.8291C31.7755 81.5521 32.8718 80.8789 33.5648 79.9488L36.6148 76.2158C37.2843 75.2643 37.4718 74.1307 37.1362 73.0642C36.8005 71.9978 35.9691 71.0858 34.8248 70.529C33.6697 70.0115 32.32 69.8817 31.0533 70.1663C29.7866 70.4508 28.6993 71.1281 28.0148 72.0588Z" fill="#E1E8F2"/>
<path d="M52.4849 41.1209L43.4849 48.6035C38.9249 52.3947 45.9949 58.2727 50.5549 54.4815L59.5549 46.9989C64.1149 43.2077 57.0449 37.3297 52.4849 41.1209Z" fill="#E1E8F2"/>
<path d="M51.0148 86.0169L48.0148 88.5111C47.0921 89.3002 46.5694 90.3539 46.5548 91.4543C46.553 92.2776 46.8453 93.0827 47.3946 93.7677C47.9439 94.4527 48.7254 94.9867 49.6402 95.3019C50.5549 95.6172 51.5616 95.6995 52.5327 95.5385C53.5038 95.3775 54.3955 94.9804 55.0948 94.3975L58.0948 91.9033C59.0175 91.1142 59.5402 90.0605 59.5548 88.9601C59.5566 88.1368 59.2643 87.3317 58.715 86.6467C58.1657 85.9617 57.3841 85.4277 56.4694 85.1125C55.5547 84.7972 54.548 84.7149 53.5769 84.8759C52.6058 85.0369 51.7141 85.434 51.0148 86.0169Z" fill="#E1E8F2"/>
<path d="M113.265 61.416C107.533 65.0107 102.265 69.0898 97.5448 73.5879C93.3548 77.6202 100.405 83.5648 104.615 79.4659C108.717 75.4599 113.304 71.8157 118.305 68.5911C120.445 67.2276 121.585 65.0077 120.095 62.9042C118.865 61.15 115.415 60.0442 113.255 61.416H113.265Z" fill="#E1E8F2"/>
<path d="M131.525 35.5419C125.845 37.6329 120.837 40.8057 116.905 44.8038C115.195 46.5414 114.905 48.9608 116.905 50.6818C118.665 52.1451 122.255 52.4278 123.975 50.6818C127.342 47.2216 131.664 44.4891 136.575 42.717C139.045 41.8108 139.575 38.8093 138.365 37.0301C136.875 34.91 134.005 34.6274 131.525 35.5419Z" fill="#E1E8F2"/>
<path d="M161.015 27.1614L147.505 28.3503C144.815 28.5831 142.505 30.088 142.505 32.5074C142.505 34.5693 144.805 36.9055 147.505 36.6644L161.015 35.4755C163.705 35.2427 166.015 33.7379 166.015 31.3184C166.015 29.2565 163.715 26.9203 161.015 27.1614Z" fill="#E1E8F2"/>
<path d="M150.645 49.7853C144.108 50.7153 138.113 53.3884 133.565 57.401C129.125 61.2753 136.185 67.1617 140.635 63.279C143.997 60.3211 148.461 58.3935 153.305 57.8084C155.975 57.4425 157.455 54.6989 156.795 52.6952C156.015 50.3423 153.315 49.4278 150.645 49.7936V49.7853Z" fill="#E1E8F2"/>
<path d="M191.165 36.1996C183.978 37.1605 177.007 39.0159 170.485 41.7035C164.705 44.0481 169.765 51.2232 175.485 48.8786C181.269 46.57 187.438 44.9977 193.785 44.2144C200.125 43.383 197.435 35.3765 191.125 36.1996H191.165Z" fill="#E1E8F2"/>
<path d="M195.515 19.9538H182.015C175.585 19.9538 175.565 28.2679 182.015 28.2679H195.515C201.945 28.2679 201.965 19.9538 195.515 19.9538Z" fill="#E1E8F2"/>
<path d="M191.015 63.1871H204.515C210.945 63.1871 210.965 54.873 204.515 54.873H191.015C184.585 54.873 184.565 63.1871 191.015 63.1871Z" fill="#E1E8F2"/>
<path d="M212.015 49.6101C217.105 49.0012 222.289 49.2101 227.285 50.2254C233.535 51.514 236.195 43.4993 229.945 42.2106C224.092 40.9626 218.007 40.6522 212.015 41.2961C209.335 41.5954 207.015 42.9589 207.015 45.4531C207.015 47.4651 209.315 49.9094 212.015 49.6101Z" fill="#E1E8F2"/>
<path d="M215.475 31.4515C219.451 33.0999 223.951 33.6643 228.335 33.0644C231.015 32.7485 232.475 29.9217 231.825 27.9513C231.035 25.5568 228.355 24.7338 225.675 25.0497C223.906 25.1807 222.127 24.9136 220.525 24.2765C219.373 23.7478 218.02 23.6074 216.747 23.8844C215.474 24.1614 214.378 24.8346 213.685 25.7647C212.395 27.6021 213.045 30.4538 215.475 31.4515Z" fill="#E1E8F2"/>
<path d="M215.665 16.2786L220.015 18.8477C220.591 19.1269 221.228 19.3075 221.889 19.3789C222.551 19.4503 223.222 19.411 223.865 19.2634C224.814 19.0461 225.664 18.6008 226.31 17.9833C226.956 17.3659 227.368 16.6037 227.495 15.7924C227.622 14.981 227.458 14.1565 227.024 13.4222C226.59 12.6879 225.905 12.0763 225.055 11.6643L220.655 9.05362C220.079 8.77441 219.442 8.59381 218.78 8.52242C218.119 8.45102 217.447 8.49029 216.805 8.63791C215.856 8.85525 215.006 9.30057 214.36 9.91802C213.714 10.5355 213.302 11.2976 213.175 12.1089C213.048 12.9203 213.211 13.7448 213.646 14.4792C214.08 15.2135 214.765 15.825 215.615 16.237L215.665 16.2786Z" fill="#E1E8F2"/>
<path d="M153.515 20.7852H158.015C159.341 20.7852 160.613 20.3472 161.55 19.5676C162.488 18.788 163.015 17.7307 163.015 16.6282C163.015 15.5257 162.488 14.4683 161.55 13.6887C160.613 12.9091 159.341 12.4711 158.015 12.4711H153.515C152.189 12.4711 150.917 12.9091 149.979 13.6887C149.042 14.4683 148.515 15.5257 148.515 16.6282C148.515 17.7307 149.042 18.788 149.979 19.5676C150.917 20.3472 152.189 20.7852 153.515 20.7852Z" fill="#E1E8F2"/>
<path d="M201.515 8.31409H206.015C207.341 8.31409 208.613 7.8761 209.55 7.09651C210.488 6.31691 211.015 5.25956 211.015 4.15704C211.015 3.05453 210.488 1.99718 209.55 1.21758C208.613 0.437982 207.341 0 206.015 0H201.515C200.189 0 198.917 0.437982 197.979 1.21758C197.042 1.99718 196.515 3.05453 196.515 4.15704C196.515 5.25956 197.042 6.31691 197.979 7.09651C198.917 7.8761 200.189 8.31409 201.515 8.31409Z" fill="#E1E8F2"/>
<path d="M216.965 66.3961L224.545 70.0127C225.681 70.4722 226.984 70.5571 228.193 70.2502C229.401 69.9433 230.425 69.2674 231.058 68.3585C231.692 67.4495 231.888 66.3749 231.607 65.3507C231.326 64.3265 230.589 63.4286 229.545 62.8376L222.015 59.2127C221.447 58.8913 220.805 58.6708 220.13 58.5648C219.455 58.4587 218.761 58.4695 218.091 58.5964C217.421 58.7234 216.79 58.9637 216.236 59.3025C215.683 59.6413 215.22 60.0713 214.876 60.5655C214.531 61.0598 214.313 61.6078 214.235 62.1753C214.156 62.7428 214.219 63.3177 214.42 63.864C214.621 64.4103 214.955 64.9164 215.401 65.3507C215.848 65.7849 216.397 66.1379 217.015 66.3878L216.965 66.3961Z" fill="#E1E8F2"/>
<path d="M140.015 79.3995C146.445 79.3995 146.465 71.0854 140.015 71.0854C133.565 71.0854 133.565 79.3995 140.015 79.3995Z" fill="#E1E8F2"/>
<path d="M81.3448 85.0536L81.2348 84.4882C81.2348 84.854 81.2348 84.854 81.2348 84.4882C81.4049 83.8314 81.2349 84.4882 81.1749 84.5963C80.8749 85.4776 81.2348 84.4716 81.2548 84.4799C81.2748 84.4882 80.5148 85.3113 81.1048 84.7376C81.5748 84.2554 81.0449 84.7376 80.9549 84.8291C80.6349 85.1866 81.8248 84.4217 81.0748 84.7626C80.8755 84.8334 80.6846 84.9197 80.5048 85.0203C81.1715 84.8042 81.3149 84.7404 80.9349 84.8291C80.5549 84.9178 80.7315 84.9178 81.4649 84.8291C78.8749 85.0868 76.3349 86.5584 76.4649 88.9861C76.5749 91.0147 78.6849 93.4175 81.4649 93.1432C82.9411 93.0679 84.3809 92.7312 85.6879 92.1556C86.9949 91.58 88.1388 90.7789 89.0431 89.8058C89.9473 88.8328 90.5911 87.7103 90.9311 86.5136C91.2712 85.3169 91.2997 84.0736 91.0148 82.867C90.6703 81.8173 89.8446 80.9219 88.7148 80.3727C87.5473 79.8185 86.164 79.6691 84.8648 79.957C82.0049 80.7302 80.9948 82.7506 81.3748 85.0702L81.3448 85.0536Z" fill="#E1E8F2"/>
<path d="M113.295 81.9278L109.015 87.0243C108.345 87.9758 108.158 89.1094 108.493 90.1759C108.829 91.2423 109.661 92.1543 110.805 92.7112C111.957 93.2398 113.309 93.3802 114.583 93.1032C115.856 92.8262 116.952 92.153 117.645 91.2229L121.895 86.0931C122.564 85.1416 122.752 84.008 122.416 82.9416C122.081 81.8751 121.249 80.9631 120.105 80.4063C118.953 79.8776 117.6 79.7373 116.327 80.0143C115.054 80.2913 113.958 80.9644 113.265 81.8945L113.295 81.9278Z" fill="#E1E8F2"/>
<path d="M17.3448 85.0701C16.7448 86.3588 17.7348 84.7542 17.9448 84.4133C18.7012 83.3642 18.9277 82.1088 18.5748 80.9214C18.3639 80.3116 17.9896 79.7495 17.4799 79.2773C16.9702 78.8051 16.3384 78.435 15.632 78.195C14.9256 77.9549 14.1629 77.8511 13.4013 77.8913C12.6397 77.9315 11.899 78.1147 11.2348 78.4271C8.80478 79.6493 7.32479 82.0604 5.77479 83.956C3.99479 86.1177 2.2948 88.3209 0.714797 90.6073C-2.5252 95.2465 6.11477 99.4368 9.34477 94.7643C10.6148 92.9352 11.9748 91.156 13.3448 89.3934C14.0114 88.5454 14.7014 87.714 15.4148 86.8992C15.7781 86.5007 16.1121 86.0842 16.4148 85.6521C16.7048 85.1865 17.2948 85.0618 16.2048 85.6521L8.86479 83.1578V83.2077L9.36479 80.0068C8.83479 81.0045 8.09479 81.8526 7.61479 82.8918C6.61479 84.987 8.69478 87.4562 11.1048 88.005C13.9348 88.6535 16.2748 87.1736 17.2548 85.1034L17.3448 85.0701Z" fill="#E1E8F2"/>
</svg>
