<svg width="33" height="32" viewBox="0 0 33 32" fill="none" xmlns="http://www.w3.org/2000/svg">
<path opacity="0.1" fill-rule="evenodd" clip-rule="evenodd" d="M0.5 16C0.5 7.16344 7.66344 0 16.5 0C25.3366 0 32.5 7.16344 32.5 16C32.5 24.8366 25.3366 32 16.5 32C7.66344 32 0.5 24.8366 0.5 16Z" fill="#6F7273"/>
<path d="M22.7281 20.625L23.4375 16H19V13C19 11.7344 19.6188 10.5 21.6063 10.5H23.625V6.5625C23.625 6.5625 21.7938 6.25 20.0438 6.25C16.3875 6.25 14 8.46563 14 12.475V16H9.9375V20.625H14V31.8062C14.8156 31.9344 15.65 32 16.5 32C17.35 32 18.1844 31.9344 19 31.8062V20.625H22.7281Z" fill="#6F7273"/>
</svg>
