<svg width="33" height="32" viewBox="0 0 33 32" fill="none" xmlns="http://www.w3.org/2000/svg">
<path opacity="0.1" fill-rule="evenodd" clip-rule="evenodd" d="M0.5 16C0.5 7.16344 7.66344 0 16.5 0C25.3366 0 32.5 7.16344 32.5 16C32.5 24.8366 25.3366 32 16.5 32C7.66344 32 0.5 24.8366 0.5 16Z" fill="#6F7273"/>
<path fill-rule="evenodd" clip-rule="evenodd" d="M16.5008 7.46667C14.1833 7.46667 13.8924 7.47681 12.9822 7.51823C12.0737 7.55983 11.4536 7.70366 10.9111 7.91468C10.3498 8.13264 9.87372 8.4242 9.3994 8.89869C8.92473 9.37301 8.63317 9.8491 8.4145 10.4102C8.20294 10.9529 8.05894 11.5732 8.01805 12.4813C7.97734 13.3915 7.96667 13.6826 7.96667 16.0001C7.96667 18.3176 7.97699 18.6076 8.01823 19.5178C8.06001 20.4263 8.20383 21.0464 8.41468 21.589C8.63282 22.1502 8.92437 22.6263 9.39887 23.1006C9.87301 23.5753 10.3491 23.8676 10.91 24.0855C11.4529 24.2965 12.0732 24.4404 12.9815 24.482C13.8917 24.5234 14.1824 24.5335 16.4997 24.5335C18.8175 24.5335 19.1074 24.5234 20.0176 24.482C20.9261 24.4404 21.5469 24.2965 22.0898 24.0855C22.6509 23.8676 23.1263 23.5753 23.6004 23.1006C24.0751 22.6263 24.3667 22.1502 24.5853 21.5891C24.7951 21.0464 24.9391 20.4261 24.9818 19.518C25.0227 18.6078 25.0333 18.3176 25.0333 16.0001C25.0333 13.6826 25.0227 13.3917 24.9818 12.4815C24.9391 11.573 24.7951 10.9529 24.5853 10.4103C24.3667 9.8491 24.0751 9.37301 23.6004 8.89869C23.1258 8.42402 22.6511 8.13246 22.0893 7.91468C21.5453 7.70366 20.9249 7.55983 20.0164 7.51823C19.1062 7.47681 18.8164 7.46667 16.4981 7.46667H16.5008ZM15.7353 9.00444C15.9625 9.00409 16.216 9.00444 16.5008 9.00444C18.7792 9.00444 19.0492 9.01262 19.949 9.05351C20.781 9.09156 21.2326 9.23058 21.5334 9.34738C21.9316 9.50205 22.2155 9.68694 22.514 9.98561C22.8127 10.2843 22.9976 10.5687 23.1526 10.967C23.2694 11.2674 23.4086 11.719 23.4464 12.551C23.4873 13.4505 23.4962 13.7208 23.4962 15.9981C23.4962 18.2755 23.4873 18.5457 23.4464 19.4453C23.4084 20.2773 23.2694 20.7288 23.1526 21.0293C22.9979 21.4275 22.8127 21.7111 22.514 22.0096C22.2153 22.3082 21.9318 22.4931 21.5334 22.6478C21.2329 22.7651 20.781 22.9038 19.949 22.9418C19.0494 22.9827 18.7792 22.9916 16.5008 22.9916C14.2222 22.9916 13.9521 22.9827 13.0526 22.9418C12.2205 22.9034 11.769 22.7644 11.468 22.6476C11.0698 22.4929 10.7853 22.3081 10.4867 22.0094C10.188 21.7107 10.0031 21.427 9.84808 21.0286C9.73128 20.7281 9.59208 20.2766 9.55421 19.4446C9.51332 18.545 9.50514 18.2748 9.50514 15.996C9.50514 13.7172 9.51332 13.4484 9.55421 12.5488C9.59226 11.7168 9.73128 11.2653 9.84808 10.9645C10.0027 10.5662 10.188 10.2818 10.4867 9.98312C10.7853 9.68445 11.0698 9.49956 11.468 9.34454C11.7688 9.2272 12.2205 9.08853 13.0526 9.05031C13.8398 9.01476 14.1448 9.00409 15.7353 9.00231V9.00444ZM21.0558 10.4214C20.4905 10.4214 20.0318 10.8795 20.0318 11.445C20.0318 12.0103 20.4905 12.469 21.0558 12.469C21.6212 12.469 22.0799 12.0103 22.0799 11.445C22.0799 10.8797 21.6212 10.4214 21.0558 10.4214ZM16.5008 11.6178C14.0807 11.6178 12.1186 13.58 12.1186 16.0001C12.1186 18.4202 14.0807 20.3815 16.5008 20.3815C18.9209 20.3815 20.8824 18.4202 20.8824 16.0001C20.8824 13.58 18.9209 11.6178 16.5008 11.6178ZM16.5008 13.1556C18.0717 13.1556 19.3453 14.429 19.3453 16.0001C19.3453 17.5709 18.0717 18.8445 16.5008 18.8445C14.9298 18.8445 13.6563 17.5709 13.6563 16.0001C13.6563 14.429 14.9298 13.1556 16.5008 13.1556Z" fill="#6F7273"/>
</svg>
