<svg width="20" height="20" viewBox="0 0 20 20" fill="none" xmlns="http://www.w3.org/2000/svg">
<path d="M2.30815 15.2096C2.40815 16.9263 3.33315 18.3346 5.63315 18.3346H14.3665C16.6665 18.3346 17.5831 16.9263 17.6915 15.2096L18.1248 8.3263C18.2415 6.5263 16.8081 5.0013 14.9998 5.0013C14.4915 5.0013 14.0248 4.70964 13.7915 4.25964L13.1915 3.0513C12.8081 2.29297 11.8081 1.66797 10.9581 1.66797H9.04981C8.19148 1.66797 7.19148 2.29297 6.80815 3.0513L6.20815 4.25964C5.97481 4.70964 5.50815 5.0013 4.99981 5.0013C3.19148 5.0013 1.75815 6.5263 1.87481 8.3263L2.09148 11.718" stroke="#14142B" stroke-width="1.5" stroke-linecap="round" stroke-linejoin="round"/>
<path d="M8.75 6.66797H11.25" stroke="#14142B" stroke-width="1.5" stroke-linecap="round" stroke-linejoin="round"/>
<path d="M10.0003 14.9987C11.492 14.9987 12.7087 13.782 12.7087 12.2904C12.7087 10.7987 11.492 9.58203 10.0003 9.58203C8.50866 9.58203 7.29199 10.7987 7.29199 12.2904C7.29199 13.782 8.50866 14.9987 10.0003 14.9987Z" stroke="#14142B" stroke-width="1.5" stroke-linecap="round" stroke-linejoin="round"/>
</svg>
