<svg width="60" height="60" viewBox="0 0 60 60" fill="none" xmlns="http://www.w3.org/2000/svg">
<path d="M44.3055 10.2233C45.4492 9.67022 46.2414 8.50303 46.2414 7.14834C46.2414 6.24329 45.8819 5.37531 45.2419 4.73534C44.6019 4.09537 43.734 3.73584 42.8289 3.73584C41.9239 3.73584 41.0559 4.09537 40.4159 4.73534C39.7759 5.37531 39.4164 6.24329 39.4164 7.14834C39.4164 8.52178 40.2273 9.69834 41.3945 10.2421C40.0445 17.5546 37.9727 22.9968 30.2617 24.1593C30.2617 24.1593 32.3383 34.5421 42.0508 34.5421C51.7633 34.5421 52.7477 24.2624 52.7477 24.2624C44.868 24.6655 44.2023 14.7608 44.3055 10.2233Z" fill="#F19534"/>
<path d="M16.2852 10.2233C15.1414 9.67022 14.3492 8.50303 14.3492 7.14834C14.3492 6.24329 14.7087 5.37531 15.3487 4.73534C15.9887 4.09537 16.8567 3.73584 17.7617 3.73584C18.6668 3.73584 19.5348 4.09537 20.1747 4.73534C20.8147 5.37531 21.1742 6.24329 21.1742 7.14834C21.1742 8.52178 20.3633 9.69834 19.1961 10.2421C20.5461 17.5546 22.618 22.9968 30.3289 24.1593C30.3289 24.1593 28.2523 34.5421 18.5398 34.5421C8.82734 34.5421 7.84766 24.2671 7.84766 24.2671C15.7227 24.6655 16.3883 14.7608 16.2852 10.2233Z" fill="#F19534"/>
<path d="M41.9199 34.5421C41.9621 34.5421 42.0043 34.5468 42.0465 34.5468C44.723 34.5468 46.734 33.764 48.2434 32.6343L41.9199 34.5421Z" fill="#FFCA28"/>
<path d="M55.8936 7.90325C54.3327 7.69231 52.842 9.17825 52.5702 11.2126C52.4014 12.4829 52.7436 13.6689 53.4045 14.4329L52.2795 19.097C52.2795 19.097 50.5592 30.1173 41.8686 32.2923C34.9217 34.0314 32.4045 21.3142 31.7952 17.3861C33.117 16.7298 34.0311 15.3704 34.0311 13.7908C34.0311 11.5736 32.2358 9.77825 30.0186 9.77825C27.8014 9.77825 26.0061 11.5736 26.0061 13.7908C26.0061 15.3798 26.9342 16.7533 28.2795 17.4001C27.7967 21.2767 25.6686 33.572 18.1686 32.2876C10.5561 30.9798 7.23267 18.1595 6.46392 14.672C7.37798 13.922 7.88892 12.6001 7.70142 11.1798C7.42954 9.14075 5.81704 7.67825 4.10142 7.90794C2.38579 8.13763 1.21861 9.97513 1.49048 12.0095C1.68736 13.4908 2.59673 14.6673 3.73579 15.1126L9.69829 52.1579C9.69829 52.1579 14.9014 56.2689 30.0186 56.2689C45.1358 56.2689 50.3389 52.1579 50.3389 52.1579L56.3155 15.0142C57.2811 14.5079 58.0405 13.3689 58.228 11.972C58.5045 9.93294 57.4592 8.11419 55.8936 7.90325Z" fill="#FFCA28"/>
<path d="M30.2063 46.8326C32.7278 46.8326 34.7719 44.3961 34.7719 41.3904C34.7719 38.3848 32.7278 35.9482 30.2063 35.9482C27.6847 35.9482 25.6406 38.3848 25.6406 41.3904C25.6406 44.3961 27.6847 46.8326 30.2063 46.8326Z" fill="#1B3A4B"/>
<path d="M30.2067 37.2938C30.3849 37.4907 30.5442 37.8516 30.2067 38.5548C29.8692 39.2579 28.0505 40.2094 27.7177 40.4016C27.3848 40.5985 27.1645 40.5094 27.0614 40.4298C26.5692 40.036 26.7567 39.1454 27.0755 38.6016C27.7598 37.4251 29.2083 36.211 30.2067 37.2938Z" fill="#006466"/>
<path d="M29.8688 43.4204C29.3532 43.6688 27.661 44.4235 28.2188 45.3188C28.5469 45.8485 29.2266 46.0735 29.8501 46.1016C30.4735 46.1298 31.0876 45.9329 31.6407 45.647C34.2657 44.2876 34.4766 40.7157 33.9657 40.4438C33.4407 40.1626 33.0844 40.8891 32.8126 41.1985C31.9859 42.1243 30.9858 42.8792 29.8688 43.4204Z" fill="#144552"/>
<path d="M55.3547 36.9376C56.086 32.8923 53.3672 31.8798 53.3672 31.8798C53.3672 31.8798 51.6141 31.5611 50.7891 36.1126C49.9641 40.6595 51.7172 40.9782 51.7172 40.9782C51.7172 40.9782 54.6188 40.9829 55.3547 36.9376Z" fill="#1B3A4B"/>
<path d="M54.1454 33.2623C54.7829 34.1154 54.0282 35.3764 52.8048 36.2154C52.4438 36.4639 51.9657 36.3701 51.8954 36.1639C51.6985 35.5732 51.7829 34.9029 52.0454 34.3357C52.8235 32.6342 53.8219 32.8311 54.1454 33.2623Z" fill="#006466"/>
<path d="M4.5754 37.0592C3.83947 33.0186 6.5629 32.0014 6.5629 32.0014C6.5629 32.0014 8.31603 31.6826 9.14103 36.2342C9.96603 40.7811 8.2129 41.0998 8.2129 41.0998C8.2129 41.0998 5.30665 41.1045 4.5754 37.0592Z" fill="#1B3A4B"/>
<path d="M7.39685 33.3751C8.02497 33.8439 7.76716 34.4579 7.29372 34.8845C6.75466 35.3767 6.34216 35.9157 5.88279 36.4736C5.81247 36.5579 5.73279 36.6517 5.62029 36.6751C5.40466 36.722 5.23122 36.5017 5.16091 36.2907C4.95935 35.7001 4.99685 35.0064 5.29685 34.4626C6.14997 32.911 7.1531 33.1923 7.39685 33.3751Z" fill="#006466"/>
<path d="M46.8704 40.8563C46.547 42.6985 45.0704 43.9782 43.5657 43.7157C42.0611 43.4532 41.8548 41.8829 42.1782 40.0407C42.5017 38.1985 43.2282 36.7876 44.7282 37.0501C46.2329 37.3126 47.1939 39.0188 46.8704 40.8563Z" fill="#4D194D"/>
<path d="M14.2642 40.8563C14.5876 42.6985 16.0642 43.9782 17.5689 43.7157C19.0736 43.4532 19.2798 41.8829 18.9564 40.0407C18.6329 38.1985 17.9064 36.7876 16.4064 37.0501C14.9064 37.3126 13.9454 39.0188 14.2642 40.8563Z" fill="#4D194D"/>
<path d="M16.4443 39.6282C16.1021 40.0126 15.2677 40.786 14.9724 40.1954C14.5692 39.3892 15.1271 38.1704 15.7646 37.7673C16.4021 37.3641 16.9224 37.6829 17.0114 38.0438C17.1193 38.5032 16.7489 39.2813 16.4443 39.6282Z" fill="#FFA8A4" fill-opacity="0.1"/>
<path d="M43.1147 40.8048C42.6507 40.7345 42.5991 39.136 43.846 37.8798C44.4413 37.2798 45.2944 37.9923 45.0788 38.9532C44.8725 39.8673 43.9632 40.936 43.1147 40.8048Z" fill="#FFA8A4" fill-opacity="0.1"/>
<path d="M51.1641 46.0361C48.3563 47.4424 41.9156 51.1877 30.0234 51.1877C18.1313 51.1877 11.6906 47.4424 8.88281 46.0361C8.88281 46.0361 7.875 46.5752 7.875 47.1377V51.4549C7.875 52.0314 8.17969 52.5611 8.67656 52.8564C10.8703 54.1502 17.5547 57.2064 30.0281 57.2064C42.5016 57.2064 49.1859 54.1502 51.3797 52.8564C51.6236 52.7126 51.8258 52.5077 51.9663 52.262C52.1069 52.0162 52.181 51.738 52.1813 51.4549V47.1377C52.1719 46.5752 51.1641 46.0361 51.1641 46.0361Z" fill="#FFCA28"/>
<path d="M18.5617 51.9563C19.8742 52.2141 20.2727 52.3266 20.1836 53.0578C20.0008 54.4969 17.0148 54.1547 15.2477 53.6907C11.5961 52.7297 10.8555 51.7172 10.8555 50.8125C10.8555 49.9828 11.493 49.8844 12.4773 50.2313C13.6539 50.6485 15.4727 51.3516 18.5617 51.9563Z" fill="#FFF59D"/>
<path d="M51.1641 46.9829C51.1641 46.9829 43.3969 51.3798 30.0234 51.3798C16.65 51.3798 8.88281 46.9829 8.88281 46.9829" stroke="#F19534" stroke-width="4" stroke-miterlimit="10" stroke-linecap="round"/>
<path d="M12.6424 23.2357C15.1361 21.4545 16.4767 18.2623 16.5939 13.181C16.6033 12.7216 16.7346 12.5857 16.983 12.5576C17.3814 12.5154 17.4471 12.8763 17.4424 13.1341C17.3299 18.6185 16.6314 22.0451 13.8658 23.9763C13.7299 24.0701 12.7596 24.6607 12.3471 24.2529C11.8549 23.7748 12.483 23.3482 12.6424 23.2357Z" fill="#FFCA28"/>
<path d="M14.9241 7.28448C14.8444 6.43604 15.0413 4.90791 17.2678 4.21416C17.9194 4.0126 18.3225 4.33135 18.3975 4.57979C18.585 5.19854 18.0413 5.44229 17.7928 5.52198C16.0819 6.0751 15.9975 6.92823 15.646 7.47198C15.2944 8.01573 14.9522 7.54229 14.9241 7.28448Z" fill="#FFCA28"/>
<path d="M36.6657 22.1108C38.9203 20.1093 40.4157 17.8733 41.4 12.7827C41.4891 12.3327 41.6203 12.2108 41.8641 12.2202C42.2625 12.2296 42.2813 12.5999 42.2391 12.853C41.4047 18.2812 40.6125 19.828 37.8328 22.9077C37.5188 23.2546 36.7547 23.5687 36.3235 23.2077C35.9344 22.8843 36.3844 22.364 36.6657 22.1108Z" fill="#FFCA28"/>
<path d="M39.9846 7.32647C39.9049 6.47803 40.1018 4.94991 42.3284 4.25616C42.9799 4.05459 43.3831 4.37334 43.4581 4.62178C43.6456 5.24053 43.1018 5.48428 42.8534 5.56397C41.1424 6.11709 41.0581 6.97022 40.7065 7.51397C40.3596 8.05772 40.0128 7.58428 39.9846 7.32647Z" fill="#FFCA28"/>
<path d="M14.8084 33.572C9.36154 31.1017 7.75842 24.6564 6.90529 21.858C6.79279 21.4876 6.84904 21.1361 7.21935 21.0236C7.58967 20.9111 7.80998 21.1501 7.92717 21.5205C8.54592 23.5501 10.9506 30.3283 15.9147 32.2548C16.2756 32.3955 16.8381 32.7376 16.5334 33.3236C16.3319 33.7033 15.685 33.9705 14.8084 33.572Z" fill="#FFF59D"/>
<path d="M5.94296 11.5453C5.68046 11.0016 5.57264 10.4859 4.14296 9.89063C3.78202 9.74063 3.54296 9.40782 3.64139 9.03282C3.73983 8.65782 4.11483 8.37657 4.65858 8.47032C6.42577 8.77501 6.81014 10.5703 6.88514 11.1938C6.95546 11.7938 6.21014 12.0891 5.94296 11.5453Z" fill="#FFF59D"/>
<path d="M45.408 33.572C50.8549 31.1017 52.458 24.6564 53.3111 21.858C53.4236 21.4876 53.3674 21.1361 52.9971 21.0236C52.6267 20.9111 52.4064 21.1501 52.2892 21.5205C51.6705 23.5501 49.2658 30.3283 44.3018 32.2548C43.9408 32.3955 43.3783 32.7376 43.683 33.3236C43.8846 33.7033 44.5314 33.9705 45.408 33.572Z" fill="#FFF59D"/>
<path d="M54.271 11.5453C54.5335 11.0016 54.6414 10.4859 56.071 9.89063C56.432 9.74063 56.671 9.40782 56.5726 9.03282C56.4742 8.65782 56.0992 8.37657 55.5554 8.47032C53.7882 8.77501 53.4038 10.5703 53.3288 11.1938C53.2585 11.7938 54.0085 12.0891 54.271 11.5453Z" fill="#FFF59D"/>
<path d="M27.8336 13.8517C28.1196 13.2658 28.6211 12.4642 30.2571 12.1267C30.8852 11.9954 31.068 11.7236 31.0118 11.3111C30.8993 10.4533 29.8305 10.5142 29.2539 10.6501C27.3321 11.1001 26.9055 12.8064 26.8258 13.4814C26.7461 14.1236 27.5524 14.4376 27.8336 13.8517Z" fill="#FFF59D"/>
</svg>
