<svg width="49" height="49" viewBox="0 0 49 49" fill="none" xmlns="http://www.w3.org/2000/svg">
<circle cx="24.5" cy="24.5" r="24" fill="#FFF3F8"/>
<path d="M32 19.4831C29.225 19.2081 26.4333 19.0664 23.65 19.0664C22 19.0664 20.35 19.1497 18.7 19.3164L17 19.4831" stroke="#BE0E0F" stroke-width="1.5" stroke-linecap="round" stroke-linejoin="round"/>
<path d="M21.5833 18.642L21.7666 17.5503C21.8999 16.7587 21.9999 16.167 23.4083 16.167H25.5916C26.9999 16.167 27.1083 16.792 27.2333 17.5587L27.4166 18.642" stroke="#BE0E0F" stroke-width="1.5" stroke-linecap="round" stroke-linejoin="round"/>
<path d="M27.1751 32.8329H21.8251C19.5001 32.8329 19.4251 31.8162 19.3334 30.5079L18.7917 22.1162" stroke="#BE0E0F" stroke-width="1.5" stroke-linecap="round" stroke-linejoin="round"/>
<path d="M30.2084 22.1162L29.6667 30.5079" stroke="#BE0E0F" stroke-width="1.5" stroke-linecap="round" stroke-linejoin="round"/>
<path d="M23.1084 28.25H25.8834" stroke="#BE0E0F" stroke-width="1.5" stroke-linecap="round" stroke-linejoin="round"/>
<path d="M25.1833 24.917H26.5834" stroke="#BE0E0F" stroke-width="1.5" stroke-linecap="round" stroke-linejoin="round"/>
<path d="M22.4167 24.917H23.1084" stroke="#BE0E0F" stroke-width="1.5" stroke-linecap="round" stroke-linejoin="round"/>
</svg>
