<svg width="48" height="48" viewBox="0 0 48 48" fill="none" xmlns="http://www.w3.org/2000/svg">
<path d="M0 24C0 37.2548 10.7452 48 24 48C37.2548 48 48 37.2548 48 24C48 10.7452 37.2548 0 24 0C10.7452 0 0 10.7452 0 24Z" fill="#020162"/>
<path d="M17.3333 24.3993C17.3333 21.7327 18.4 20.666 21.0666 20.666H23.0666" stroke="white" stroke-width="1.5" stroke-linecap="round" stroke-linejoin="round"/>
<path d="M27.3333 24.9336V26.9336C27.3333 29.6003 26.2666 30.6669 23.6 30.6669H21.0666C18.4 30.6669 17.3333 29.6003 17.3333 26.9336" stroke="white" stroke-width="1.5" stroke-linecap="round" stroke-linejoin="round"/>
<path d="M25.2 24.9327C23.6 24.9327 23.0667 24.3993 23.0667 22.7993V20.666L27.3333 24.9327" stroke="white" stroke-width="1.5" stroke-linecap="round" stroke-linejoin="round"/>
<path d="M23.7333 17.334H26.4" stroke="white" stroke-width="1.5" stroke-linecap="round" stroke-linejoin="round"/>
<path d="M20.6667 19.334C20.6667 18.2273 21.56 17.334 22.6667 17.334H24.4134" stroke="white" stroke-width="1.5" stroke-linecap="round" stroke-linejoin="round"/>
<path d="M30.6667 21.334V25.4607C30.6667 26.494 29.8267 27.334 28.7933 27.334" stroke="white" stroke-width="1.5" stroke-linecap="round" stroke-linejoin="round"/>
<path d="M30.6667 21.334H28.6667C27.1667 21.334 26.6667 20.834 26.6667 19.334V17.334L30.6667 21.334Z" stroke="white" stroke-width="1.5" stroke-linecap="round" stroke-linejoin="round"/>
</svg>
