<svg width="49" height="48" viewBox="0 0 49 48" fill="none" xmlns="http://www.w3.org/2000/svg">
<path d="M0.5 24C0.5 37.2548 11.2452 48 24.5 48C37.7548 48 48.5 37.2548 48.5 24C48.5 10.7452 37.7548 0 24.5 0C11.2452 0 0.5 10.7452 0.5 24Z" fill="#1877F2"/>
<path d="M32.5 24C32.5 19.6 28.9 16 24.5 16C20.1 16 16.5 19.6 16.5 24C16.5 28 19.4 31.3 23.2 31.9V26.3H21.2V24H23.2V22.2C23.2 20.2 24.4 19.1 26.2 19.1C27.1 19.1 28 19.3 28 19.3V21.3H27C26 21.3 25.7 21.9 25.7 22.5V24H27.9L27.5 26.3H25.6V32C29.6 31.4 32.5 28 32.5 24Z" fill="white"/>
</svg>
