<svg width="56" height="56" viewBox="0 0 56 56" fill="none" xmlns="http://www.w3.org/2000/svg">
<circle cx="28" cy="28" r="28" fill="#FFF5F9"/>
<path d="M17.2932 35.9987C17.2932 39.9987 18.6265 41.332 22.6265 41.332H33.2932C37.2932 41.332 38.6265 39.9987 38.6265 35.9987V25.332H17.2932V30.452" stroke="#9F1C52" stroke-width="1.5" stroke-miterlimit="10" stroke-linecap="round" stroke-linejoin="round"/>
<path d="M40.6666 21.3346V22.668C40.6666 24.1346 39.9599 25.3346 37.9999 25.3346H17.9999C15.9599 25.3346 15.3333 24.1346 15.3333 22.668V21.3346C15.3333 19.868 15.9599 18.668 17.9999 18.668H37.9999C39.9599 18.668 40.6666 19.868 40.6666 21.3346Z" stroke="#9F1C52" stroke-width="1.5" stroke-miterlimit="10" stroke-linecap="round" stroke-linejoin="round"/>
<path d="M27.5201 18.6685H20.1601C19.7068 18.1752 19.7201 17.4152 20.2001 16.9352L22.0935 15.0419C22.5868 14.5485 23.4001 14.5485 23.8935 15.0419L27.5201 18.6685Z" stroke="#9F1C52" stroke-width="1.5" stroke-miterlimit="10" stroke-linecap="round" stroke-linejoin="round"/>
<path d="M35.8266 18.6685H28.4666L32.0932 15.0419C32.5866 14.5485 33.3999 14.5485 33.8932 15.0419L35.7866 16.9352C36.2666 17.4152 36.2799 18.1752 35.8266 18.6685Z" stroke="#9F1C52" stroke-width="1.5" stroke-miterlimit="10" stroke-linecap="round" stroke-linejoin="round"/>
<path d="M23.9199 25.332V32.1854C23.9199 33.252 25.0933 33.8787 25.9866 33.3054L27.2399 32.4787C27.6933 32.1854 28.2666 32.1854 28.7066 32.4787L29.8933 33.2787C30.7733 33.8654 31.9599 33.2387 31.9599 32.172V25.332H23.9199Z" stroke="#9F1C52" stroke-width="1.5" stroke-miterlimit="10" stroke-linecap="round" stroke-linejoin="round"/>
</svg>
