<svg width="20" height="20" viewBox="0 0 20 20" fill="none" xmlns="http://www.w3.org/2000/svg">
<path d="M18.1713 8.36727H17.5001V8.33268H10.0001V11.666H14.7097C14.0226 13.6064 12.1763 14.9993 10.0001 14.9993C7.23883 14.9993 5.00008 12.7606 5.00008 9.99935C5.00008 7.2381 7.23883 4.99935 10.0001 4.99935C11.2747 4.99935 12.4342 5.48018 13.3172 6.2656L15.6742 3.90852C14.1859 2.52143 12.1951 1.66602 10.0001 1.66602C5.398 1.66602 1.66675 5.39727 1.66675 9.99935C1.66675 14.6014 5.398 18.3327 10.0001 18.3327C14.6022 18.3327 18.3334 14.6014 18.3334 9.99935C18.3334 9.4406 18.2759 8.89518 18.1713 8.36727Z" fill="#FFC107"/>
<path d="M2.62744 6.1206L5.36536 8.12852C6.10619 6.29435 7.90036 4.99935 9.99994 4.99935C11.2745 4.99935 12.4341 5.48018 13.317 6.2656L15.6741 3.90852C14.1858 2.52143 12.1949 1.66602 9.99994 1.66602C6.79911 1.66602 4.02327 3.4731 2.62744 6.1206Z" fill="#FF3D00"/>
<path d="M10 18.3336C12.1525 18.3336 14.1084 17.5099 15.5871 16.1703L13.008 13.9878C12.1432 14.6454 11.0865 15.0011 10 15.0003C7.83255 15.0003 5.99213 13.6182 5.2988 11.6895L2.5813 13.7832C3.96047 16.482 6.7613 18.3336 10 18.3336Z" fill="#4CAF50"/>
<path d="M18.1713 8.36857H17.5V8.33398H10V11.6673H14.7096C14.3809 12.5908 13.7889 13.3978 13.0067 13.9886L13.0079 13.9877L15.5871 16.1702C15.4046 16.3361 18.3333 14.1673 18.3333 10.0007C18.3333 9.4419 18.2758 8.89648 18.1713 8.36857Z" fill="#1976D2"/>
</svg>
