<svg width="48" height="48" viewBox="0 0 48 48" fill="none" xmlns="http://www.w3.org/2000/svg">
<circle cx="24" cy="24" r="24" fill="#FFF3F8"/>
<path d="M24.275 28.5409C24.125 28.5909 23.8667 28.5909 23.7167 28.5409C22.4167 28.0992 19.5 26.2409 19.5 23.0909C19.5 21.6992 20.6167 20.5742 22 20.5742C22.8167 20.5742 23.5417 20.9659 24 21.5825C24.45 20.9742 25.1833 20.5742 26 20.5742C27.3833 20.5742 28.5 21.6992 28.5 23.0909C28.5 26.2409 25.5833 28.0992 24.275 28.5409Z" stroke="#EE2A7B" stroke-width="1.5" stroke-linecap="round" stroke-linejoin="round"/>
<path d="M17.3346 19.0013C16.293 20.393 15.668 22.1263 15.668 24.0013C15.668 28.6013 19.4013 32.3346 24.0013 32.3346C28.6013 32.3346 32.3346 28.6013 32.3346 24.0013C32.3346 19.4013 28.6013 15.668 24.0013 15.668C22.8096 15.668 21.668 15.918 20.643 16.3763" stroke="#EE2A7B" stroke-width="1.5" stroke-linecap="round" stroke-linejoin="round"/>
</svg>
