<svg width="20" height="20" viewBox="0 0 20 20" fill="none" xmlns="http://www.w3.org/2000/svg">
<path d="M10.275 14.5409C10.125 14.5909 9.86666 14.5909 9.71666 14.5409C8.41666 14.0992 5.5 12.2409 5.5 9.09088C5.5 7.69921 6.61667 6.57422 8 6.57422C8.81667 6.57422 9.54166 6.96588 9.99999 7.58254C10.45 6.97421 11.1833 6.57422 12 6.57422C13.3833 6.57422 14.5 7.69921 14.5 9.09088C14.5 12.2409 11.5833 14.0992 10.275 14.5409Z" stroke="#EE2A7B" stroke-width="1.5" stroke-linecap="round" stroke-linejoin="round"/>
<path d="M3.33464 5.0013C2.29297 6.39297 1.66797 8.1263 1.66797 10.0013C1.66797 14.6013 5.4013 18.3346 10.0013 18.3346C14.6013 18.3346 18.3346 14.6013 18.3346 10.0013C18.3346 5.4013 14.6013 1.66797 10.0013 1.66797C8.80964 1.66797 7.66797 1.91797 6.64297 2.37631" stroke="#EE2A7B" stroke-width="1.5" stroke-linecap="round" stroke-linejoin="round"/>
</svg>
