<svg width="48" height="48" viewBox="0 0 48 48" fill="none" xmlns="http://www.w3.org/2000/svg">
<path d="M0 24C0 37.2548 10.7452 48 24 48C37.2548 48 48 37.2548 48 24C48 10.7452 37.2548 0 24 0C10.7452 0 0 10.7452 0 24Z" fill="#F00073"/>
<path d="M24 17.4458C26.1205 17.4458 26.4096 17.4458 27.2771 17.4458C28.0482 17.4458 28.4337 17.6386 28.7229 17.7349C29.1084 17.9277 29.3976 18.0241 29.6867 18.3133C29.9759 18.6024 30.1687 18.8916 30.2651 19.2771C30.3614 19.5663 30.4578 19.9518 30.5542 20.7229C30.5542 21.5904 30.5542 21.7831 30.5542 24C30.5542 26.2169 30.5542 26.4096 30.5542 27.2771C30.5542 28.0482 30.3614 28.4337 30.2651 28.7229C30.0723 29.1084 29.9759 29.3976 29.6867 29.6867C29.3976 29.9759 29.1084 30.1687 28.7229 30.2651C28.4337 30.3614 28.0482 30.4578 27.2771 30.5542C26.4096 30.5542 26.2169 30.5542 24 30.5542C21.7831 30.5542 21.5904 30.5542 20.7229 30.5542C19.9518 30.5542 19.5663 30.3614 19.2771 30.2651C18.8916 30.0723 18.6024 29.9759 18.3133 29.6867C18.0241 29.3976 17.8313 29.1084 17.7349 28.7229C17.6386 28.4337 17.5422 28.0482 17.4458 27.2771C17.4458 26.4096 17.4458 26.2169 17.4458 24C17.4458 21.7831 17.4458 21.5904 17.4458 20.7229C17.4458 19.9518 17.6386 19.5663 17.7349 19.2771C17.9277 18.8916 18.0241 18.6024 18.3133 18.3133C18.6024 18.0241 18.8916 17.8313 19.2771 17.7349C19.5663 17.6386 19.9518 17.5422 20.7229 17.4458C21.5904 17.4458 21.8795 17.4458 24 17.4458ZM24 16C21.7831 16 21.5904 16 20.7229 16C19.8554 16 19.2771 16.1928 18.7952 16.3855C18.3133 16.5783 17.8313 16.8675 17.3494 17.3494C16.8675 17.8313 16.6747 18.2169 16.3855 18.7952C16.1928 19.2771 16.0964 19.8554 16 20.7229C16 21.5904 16 21.8795 16 24C16 26.2169 16 26.4096 16 27.2771C16 28.1446 16.1928 28.7229 16.3855 29.2048C16.5783 29.6867 16.8675 30.1687 17.3494 30.6506C17.8313 31.1325 18.2169 31.3253 18.7952 31.6145C19.2771 31.8072 19.8554 31.9036 20.7229 32C21.5904 32 21.8795 32 24 32C26.1205 32 26.4096 32 27.2771 32C28.1446 32 28.7229 31.8072 29.2048 31.6145C29.6867 31.4217 30.1687 31.1325 30.6506 30.6506C31.1325 30.1687 31.3253 29.7831 31.6145 29.2048C31.8072 28.7229 31.9036 28.1446 32 27.2771C32 26.4096 32 26.1205 32 24C32 21.8795 32 21.5904 32 20.7229C32 19.8554 31.8072 19.2771 31.6145 18.7952C31.4217 18.3133 31.1325 17.8313 30.6506 17.3494C30.1687 16.8675 29.7831 16.6747 29.2048 16.3855C28.7229 16.1928 28.1446 16.0964 27.2771 16C26.4096 16 26.2169 16 24 16Z" fill="white"/>
<path d="M24 19.8554C21.6867 19.8554 19.8554 21.6867 19.8554 24C19.8554 26.3133 21.6867 28.1446 24 28.1446C26.3133 28.1446 28.1446 26.3133 28.1446 24C28.1446 21.6867 26.3133 19.8554 24 19.8554ZM24 26.6988C22.5542 26.6988 21.3012 25.5422 21.3012 24C21.3012 22.5542 22.4578 21.3012 24 21.3012C25.4458 21.3012 26.6988 22.4578 26.6988 24C26.6988 25.4458 25.4458 26.6988 24 26.6988Z" fill="white"/>
<path d="M28.241 20.7229C28.7733 20.7229 29.2048 20.2914 29.2048 19.759C29.2048 19.2267 28.7733 18.7952 28.241 18.7952C27.7086 18.7952 27.2771 19.2267 27.2771 19.759C27.2771 20.2914 27.7086 20.7229 28.241 20.7229Z" fill="white"/>
</svg>
