<svg width="20" height="20" viewBox="0 0 20 20" fill="none" xmlns="http://www.w3.org/2000/svg">
<path d="M1.66602 9.63373V11.1921C1.66602 13.6921 3.33268 15.3588 5.83268 15.3588H9.16602L12.8744 17.8254C13.4244 18.1921 14.166 17.8004 14.166 17.1338V15.3588C16.666 15.3588 18.3327 13.6921 18.3327 11.1921V6.19206C18.3327 3.69206 16.666 2.02539 14.166 2.02539H5.83268C3.33268 2.02539 1.66602 3.69206 1.66602 6.19206" stroke="#D5D8DF" stroke-width="1.5" stroke-miterlimit="10" stroke-linecap="round" stroke-linejoin="round"/>
<path d="M10.0005 9.4668V9.29183C10.0005 8.72516 10.3505 8.42515 10.7005 8.18348C11.0422 7.95015 11.3838 7.65016 11.3838 7.10016C11.3838 6.33349 10.7672 5.7168 10.0005 5.7168C9.23383 5.7168 8.61719 6.33349 8.61719 7.10016" stroke="#D5D8DF" stroke-width="1.5" stroke-linecap="round" stroke-linejoin="round"/>
<path d="M9.9969 11.4577H10.0044" stroke="#D5D8DF" stroke-width="1.5" stroke-linecap="round" stroke-linejoin="round"/>
</svg>
