<svg width="28" height="28" viewBox="0 0 28 28" fill="none" xmlns="http://www.w3.org/2000/svg">
<rect width="28" height="28" rx="8" fill="#FCFCFC"/>
<path d="M8.16667 12.3335C7.25 12.3335 6.5 13.0835 6.5 14.0002C6.5 14.9168 7.25 15.6668 8.16667 15.6668C9.08333 15.6668 9.83333 14.9168 9.83333 14.0002C9.83333 13.0835 9.08333 12.3335 8.16667 12.3335Z" stroke="#14142B" stroke-width="1.5"/>
<path d="M19.8337 12.3335C18.917 12.3335 18.167 13.0835 18.167 14.0002C18.167 14.9168 18.917 15.6668 19.8337 15.6668C20.7503 15.6668 21.5003 14.9168 21.5003 14.0002C21.5003 13.0835 20.7503 12.3335 19.8337 12.3335Z" stroke="#14142B" stroke-width="1.5"/>
<path d="M12.333 14.0002C12.333 14.9168 13.083 15.6668 13.9997 15.6668C14.9163 15.6668 15.6663 14.9168 15.6663 14.0002C15.6663 13.0835 14.9163 12.3335 13.9997 12.3335" stroke="#14142B" stroke-width="1.5" stroke-linecap="round" stroke-linejoin="round"/>
</svg>
