<svg width="15" height="15" viewBox="0 0 15 15" fill="none" xmlns="http://www.w3.org/2000/svg">
<path fill-rule="evenodd" clip-rule="evenodd" d="M13.2387 12.6356C12.9193 12.6632 12.866 12.9942 12.7862 13.3529C12.7595 13.4356 12.7329 13.546 12.7063 13.6563C12.653 13.6563 12.5732 13.6563 12.4401 13.6288C12.1739 13.5736 11.881 13.5184 11.5083 13.5184C11.2953 13.5184 11.0823 13.546 10.8427 13.5736C10.3635 13.6564 9.9376 13.9598 9.53826 14.2633C8.95255 14.7046 8.28701 14.8977 7.48834 14.8977C7.46173 14.8977 7.43508 14.8977 7.38186 14.8977C7.37465 14.8977 7.36798 14.8977 7.36189 14.8977C7.35961 14.8977 7.35734 14.8977 7.35525 14.8977C6.47671 14.8977 6.05077 14.6218 5.54492 14.2632C5.14559 13.9597 4.74625 13.6563 4.24044 13.5735C4.02745 13.546 3.78785 13.5184 3.5749 13.5184C3.17556 13.5184 2.8561 13.5735 2.64311 13.6287C2.53663 13.6563 2.45676 13.6839 2.37689 13.6839C2.35028 13.5735 2.32364 13.4632 2.29703 13.3528C2.21716 12.9942 2.16391 12.6632 1.84444 12.608C0.673049 12.4425 0.273715 12.1942 0.140625 12.0839C2.32364 11.6149 3.3353 9.40798 3.46842 9.10452C3.62815 8.7459 3.65476 8.41487 3.54828 8.13898C3.3353 7.64242 2.74962 7.44933 2.37689 7.33896C2.29703 7.33896 2.24377 7.31138 2.19055 7.28377C1.73793 7.09071 1.65806 6.92519 1.65806 6.89762C1.65806 6.81486 1.84441 6.70452 2.00414 6.70452C2.0574 6.70452 2.08401 6.70452 2.08401 6.70452C2.40348 6.87004 2.72294 6.9528 2.98915 6.9528C3.38849 6.9528 3.60148 6.75971 3.6547 6.70452C3.70792 6.64934 3.73457 6.59419 3.73457 6.51143C3.73457 6.34591 3.70796 6.18039 3.70796 6.01487C3.62809 4.93899 3.54822 3.61484 3.86769 2.89758C4.79948 0.718254 6.79615 0.552734 7.38183 0.552734H7.64804H7.67465C8.26033 0.552734 10.257 0.718254 11.2154 2.84243C11.5083 3.55969 11.4284 4.88384 11.3751 5.95972V6.0149C11.3751 6.18042 11.3485 6.31836 11.3485 6.45627C11.3485 6.53903 11.3751 6.62179 11.4284 6.67698C11.4816 6.73216 11.668 6.89768 12.0673 6.92526C12.3335 6.89768 12.5998 6.81492 12.9192 6.67698C12.9725 6.6494 13.1056 6.6494 13.2121 6.70455C13.3452 6.75974 13.3984 6.8425 13.3984 6.87007C13.3984 6.92526 13.292 7.09078 12.866 7.2563C12.8127 7.28387 12.7329 7.31148 12.653 7.33906C12.3069 7.44939 11.7212 7.64252 11.5083 8.13908C11.3751 8.41493 11.4284 8.74597 11.5881 9.10462C11.6946 9.38047 12.6796 11.6426 14.8893 12.1115C14.7562 12.2218 14.3835 12.4425 13.2387 12.6356Z" fill="white"/>
</svg>
