<svg width="21" height="20" viewBox="0 0 21 20" fill="none" xmlns="http://www.w3.org/2000/svg">
<path d="M18.8337 4.25767V13.7244C18.8337 14.9327 17.967 15.441 16.9087 14.8577L13.8337 13.141V7.49101C13.8337 6.06601 12.667 4.89935 11.242 4.89935H7.16699V4.25767C7.16699 2.83267 8.33365 1.66602 9.75865 1.66602H16.242C17.667 1.66602 18.8337 2.83267 18.8337 4.25767Z" stroke="white" stroke-width="1.5" stroke-linecap="round" stroke-linejoin="round"/>
<path d="M2.16699 16.9587C2.16699 18.1671 3.03366 18.6754 4.09199 18.092L7.36698 16.267C7.71698 16.0754 8.28367 16.0754 8.63367 16.267L11.9087 18.092C12.967 18.6754 13.8337 18.1671 13.8337 16.9587V7.49205C13.8337 6.06705 12.667 4.90039 11.242 4.90039H4.75865C3.33365 4.90039 2.16699 6.06705 2.16699 7.49205V12.9254" stroke="white" stroke-width="1.5" stroke-linecap="round" stroke-linejoin="round"/>
</svg>
