<svg width="49" height="48" viewBox="0 0 49 48" fill="none" xmlns="http://www.w3.org/2000/svg">
<circle cx="24.5" cy="24" r="24" fill="#FFFC00"/>
<path d="M32.1273 27.6139C30.104 27.2553 29.1988 25.1587 29.0923 24.9104V24.8829C28.9859 24.6622 28.9592 24.4966 29.0125 24.3587C29.119 24.1104 29.5715 23.9449 29.8644 23.8622C29.9443 23.8346 30.0241 23.807 30.0774 23.7794C30.6365 23.5311 30.9293 23.2277 30.9293 22.869C30.9293 22.5932 30.7163 22.3173 30.3969 22.207C30.2904 22.1518 30.1573 22.1242 30.0241 22.1242C29.9443 22.1242 29.8111 22.1518 29.6781 22.207C29.4118 22.3173 29.1989 22.4001 29.0391 22.4001C28.9859 22.4001 28.9326 22.4001 28.8794 22.3725C28.906 22.2897 28.906 22.207 28.906 22.0966V22.0415C28.9593 20.9104 29.0657 19.5035 28.693 18.6759C27.6015 16.1931 25.3386 16 24.6731 16H24.3536C23.688 16 21.4251 16.1931 20.3602 18.6759C19.9875 19.5035 20.0674 20.9104 20.1473 22.0415C20.1739 22.1518 20.1739 22.2622 20.1739 22.3725C20.1206 22.3725 20.0408 22.4001 19.9609 22.4001C19.7479 22.4001 19.5349 22.3449 19.2687 22.207C18.896 22.0415 18.1772 22.2897 18.0973 22.7863C18.044 23.0621 18.1506 23.4484 18.9492 23.7794C19.0025 23.807 19.0823 23.8346 19.1888 23.8622C19.455 23.9449 19.9076 24.1104 20.0141 24.3587C20.0674 24.4691 20.0407 24.6622 19.9342 24.8829C19.881 24.9656 18.9492 27.2001 16.846 27.5587C16.6331 27.6139 16.5 27.807 16.5 28.0277C16.5 28.1105 16.5266 28.1657 16.5533 28.2208C16.713 28.6622 17.4052 28.9381 18.6564 29.1587C18.683 29.2415 18.7097 29.407 18.7363 29.4898C18.7629 29.6001 18.7895 29.7381 18.8161 29.876C18.8427 30.014 18.9759 30.2346 19.2953 30.2346C19.4018 30.2346 19.5349 30.207 19.6681 30.1794C19.881 30.1243 20.1473 30.0691 20.4933 30.0691C20.7063 30.0691 20.8927 30.0967 21.1057 30.1519C21.4784 30.207 21.8245 30.4553 22.1972 30.7312C22.7563 31.145 23.2621 31.4484 24.3003 31.4484C24.3269 31.4484 24.3536 31.4484 24.3802 31.4484C24.4068 31.4484 24.4601 31.4484 24.4867 31.4484C25.3918 31.4484 26.1905 31.2002 26.8827 30.7312C27.2554 30.4829 27.6015 30.207 27.9742 30.1519C28.1606 30.1243 28.3735 30.0967 28.5599 30.0967C28.8794 30.0967 29.1456 30.1243 29.3852 30.1794C29.5449 30.207 29.678 30.2346 29.7845 30.2346C29.9975 30.2346 30.1838 30.0967 30.2371 29.876C30.2637 29.7381 30.2903 29.6277 30.317 29.4898C30.3436 29.4346 30.3702 29.2691 30.3968 29.1863C31.6481 28.9932 32.2604 28.6898 32.4467 28.276C32.4734 28.2208 32.5 28.138 32.5 28.0829C32.5 27.8622 32.3402 27.6415 32.1273 27.6139Z" fill="black"/>
<path fill-rule="evenodd" clip-rule="evenodd" d="M30.2387 28.6356C29.9193 28.6632 29.866 28.9942 29.7862 29.3529C29.7595 29.4356 29.7329 29.546 29.7063 29.6563C29.653 29.6563 29.5732 29.6563 29.4401 29.6288C29.1739 29.5736 28.881 29.5184 28.5083 29.5184C28.2953 29.5184 28.0823 29.546 27.8427 29.5736C27.3635 29.6564 26.9376 29.9598 26.5383 30.2633C25.9526 30.7046 25.287 30.8977 24.4883 30.8977C24.4617 30.8977 24.4351 30.8977 24.3819 30.8977C24.3747 30.8977 24.368 30.8977 24.3619 30.8977C24.3596 30.8977 24.3573 30.8977 24.3552 30.8977C23.4767 30.8977 23.0508 30.6218 22.5449 30.2632C22.1456 29.9597 21.7463 29.6563 21.2404 29.5735C21.0275 29.546 20.7879 29.5184 20.5749 29.5184C20.1756 29.5184 19.8561 29.5735 19.6431 29.6287C19.5366 29.6563 19.4568 29.6839 19.3769 29.6839C19.3503 29.5735 19.3236 29.4632 19.297 29.3528C19.2172 28.9942 19.1639 28.6632 18.8444 28.608C17.673 28.4425 17.2737 28.1942 17.1406 28.0839C19.3236 27.6149 20.3353 25.408 20.4684 25.1045C20.6282 24.7459 20.6548 24.4149 20.5483 24.139C20.3353 23.6424 19.7496 23.4493 19.3769 23.339C19.297 23.339 19.2438 23.3114 19.1905 23.2838C18.7379 23.0907 18.6581 22.9252 18.6581 22.8976C18.6581 22.8149 18.8444 22.7045 19.0041 22.7045C19.0574 22.7045 19.084 22.7045 19.084 22.7045C19.4035 22.87 19.7229 22.9528 19.9892 22.9528C20.3885 22.9528 20.6015 22.7597 20.6547 22.7045C20.7079 22.6493 20.7346 22.5942 20.7346 22.5114C20.7346 22.3459 20.708 22.1804 20.708 22.0149C20.6281 20.939 20.5482 19.6148 20.8677 18.8976C21.7995 16.7183 23.7961 16.5527 24.3818 16.5527H24.648H24.6747C25.2603 16.5527 27.257 16.7183 28.2154 18.8424C28.5083 19.5597 28.4284 20.8838 28.3751 21.9597V22.0149C28.3751 22.1804 28.3485 22.3184 28.3485 22.4563C28.3485 22.539 28.3751 22.6218 28.4284 22.677C28.4816 22.7322 28.668 22.8977 29.0673 22.9253C29.3335 22.8977 29.5998 22.8149 29.9192 22.677C29.9725 22.6494 30.1056 22.6494 30.2121 22.7046C30.3452 22.7597 30.3984 22.8425 30.3984 22.8701C30.3984 22.9253 30.292 23.0908 29.866 23.2563C29.8127 23.2839 29.7329 23.3115 29.653 23.3391C29.3069 23.4494 28.7212 23.6425 28.5083 24.1391C28.3751 24.4149 28.4284 24.746 28.5881 25.1046C28.6946 25.3805 29.6796 27.6426 31.8893 28.1115C31.7562 28.2218 31.3835 28.4425 30.2387 28.6356Z" fill="white"/>
</svg>
