<svg width="25" height="26" viewBox="0 0 25 26" fill="none" xmlns="http://www.w3.org/2000/svg">
<path fill-rule="evenodd" clip-rule="evenodd" d="M22.394 19C25.7077 13.2605 23.7412 5.92143 18.0017 2.60772C12.2622 -0.705984 4.92308 1.26052 1.60938 7.00003C-1.70433 12.7395 0.262168 20.0786 6.00168 23.3923C11.7412 26.706 19.0803 24.7395 22.394 19ZM20.6619 18C23.4234 13.2171 21.7846 7.1012 17.0017 4.33978C12.2188 1.57835 6.10285 3.2171 3.34143 8.00003C0.580002 12.783 2.21875 18.8989 7.00168 21.6603C11.7846 24.4217 17.9005 22.783 20.6619 18Z" fill="url(#paint0_angular_1191_13165)"/>
<path fill-rule="evenodd" clip-rule="evenodd" d="M15.3144 2.46321C15.5271 1.95352 16.1127 1.71273 16.6223 1.9254C17.0962 2.12311 17.5568 2.35101 18.0014 2.60772C18.4797 2.88386 18.6436 3.49545 18.3675 3.97374C18.0913 4.45204 17.4797 4.61591 17.0014 4.33977C16.6309 4.12585 16.247 3.93593 15.8522 3.77117C15.3425 3.5585 15.1017 2.97291 15.3144 2.46321Z" fill="#EE2A7B"/>
<defs>
<radialGradient id="paint0_angular_1191_13165" cx="0" cy="0" r="1" gradientUnits="userSpaceOnUse" gradientTransform="translate(12.0017 13) rotate(-60) scale(12)">
<stop stop-color="#FF68A6"/>
<stop offset="0.0001" stop-color="#FFB0D1"/>
<stop offset="1" stop-color="#EE2A7B"/>
</radialGradient>
</defs>
</svg>
