<svg width="17" height="14" viewBox="0 0 17 14" fill="none" xmlns="http://www.w3.org/2000/svg">
<path d="M1.59992 6.04167C5.89487 4.17042 8.75885 2.93678 10.1919 2.34075C14.2834 0.638954 15.1335 0.343334 15.6877 0.333469C15.8095 0.331426 16.082 0.36163 16.2586 0.504863C16.4076 0.625806 16.4486 0.789183 16.4683 0.90385C16.4879 1.01852 16.5123 1.27973 16.4929 1.48384C16.2712 3.81347 15.3118 9.46687 14.8237 12.0761C14.6172 13.1802 14.2105 13.5503 13.8168 13.5866C12.9613 13.6653 12.3116 13.0211 11.4829 12.4779C10.1862 11.6279 9.45369 11.0988 8.19503 10.2694C6.74042 9.31082 7.68338 8.78397 8.51236 7.92296C8.72931 7.69763 12.499 4.26883 12.5719 3.95779C12.5811 3.91889 12.5895 3.77388 12.5034 3.69731C12.4172 3.62074 12.2901 3.64693 12.1983 3.66775C12.0683 3.69727 9.9968 5.06644 5.98389 7.77527C5.39591 8.17903 4.86333 8.37575 4.38616 8.36544C3.86012 8.35407 2.84822 8.06801 2.09598 7.82348C1.17333 7.52357 0.440022 7.365 0.503876 6.85564C0.537136 6.59034 0.902482 6.31902 1.59992 6.04167Z" fill="white"/>
</svg>
