<svg width="21" height="20" viewBox="0 0 21 20" fill="none" xmlns="http://www.w3.org/2000/svg">
<path d="M17.75 4.98307C14.975 4.70807 12.1833 4.56641 9.4 4.56641C7.75 4.56641 6.1 4.64974 4.45 4.81641L2.75 4.98307" stroke="#EE2A7B" stroke-width="1.5" stroke-linecap="round" stroke-linejoin="round"/>
<path d="M7.33325 4.14199L7.51659 3.05033C7.64992 2.25866 7.74992 1.66699 9.15825 1.66699H11.3416C12.7499 1.66699 12.8583 2.29199 12.9833 3.05866L13.1666 4.14199" stroke="#EE2A7B" stroke-width="1.5" stroke-linecap="round" stroke-linejoin="round"/>
<path d="M12.9251 18.3329H7.57508C5.25008 18.3329 5.17508 17.3162 5.08341 16.0079L4.54175 7.61621" stroke="#EE2A7B" stroke-width="1.5" stroke-linecap="round" stroke-linejoin="round"/>
<path d="M15.9584 7.61621L15.4167 16.0079" stroke="#EE2A7B" stroke-width="1.5" stroke-linecap="round" stroke-linejoin="round"/>
<path d="M8.8584 13.75H11.6334" stroke="#EE2A7B" stroke-width="1.5" stroke-linecap="round" stroke-linejoin="round"/>
<path d="M10.9333 10.417H12.3334" stroke="#EE2A7B" stroke-width="1.5" stroke-linecap="round" stroke-linejoin="round"/>
<path d="M8.16675 10.417H8.85841" stroke="#EE2A7B" stroke-width="1.5" stroke-linecap="round" stroke-linejoin="round"/>
</svg>
