<svg width="21" height="20" viewBox="0 0 21 20" fill="none" xmlns="http://www.w3.org/2000/svg">
<path d="M18 4.98307C15.225 4.70807 12.4333 4.56641 9.65 4.56641C8 4.56641 6.35 4.64974 4.7 4.81641L3 4.98307" stroke="#121212" stroke-width="1.5" stroke-linecap="round" stroke-linejoin="round"/>
<path d="M7.58325 4.14199L7.76659 3.05033C7.89992 2.25866 7.99992 1.66699 9.40825 1.66699H11.5916C12.9999 1.66699 13.1083 2.29199 13.2333 3.05866L13.4166 4.14199" stroke="#121212" stroke-width="1.5" stroke-linecap="round" stroke-linejoin="round"/>
<path d="M13.1751 18.3329H7.82508C5.50008 18.3329 5.42508 17.3162 5.33341 16.0079L4.79175 7.61621" stroke="#121212" stroke-width="1.5" stroke-linecap="round" stroke-linejoin="round"/>
<path d="M16.2084 7.61621L15.6667 16.0079" stroke="#121212" stroke-width="1.5" stroke-linecap="round" stroke-linejoin="round"/>
<path d="M9.1084 13.75H11.8834" stroke="#121212" stroke-width="1.5" stroke-linecap="round" stroke-linejoin="round"/>
<path d="M11.1833 10.417H12.5833" stroke="#121212" stroke-width="1.5" stroke-linecap="round" stroke-linejoin="round"/>
<path d="M8.41675 10.417H9.10841" stroke="#121212" stroke-width="1.5" stroke-linecap="round" stroke-linejoin="round"/>
</svg>
