<svg width="17" height="14" viewBox="0 0 17 14" fill="none" xmlns="http://www.w3.org/2000/svg">
<path d="M16.5 1.83337C15.9 2.13337 15.3 2.23337 14.6 2.33337C15.3 1.93337 15.8 1.33337 16 0.533374C15.4 0.933374 14.7 1.13337 13.9 1.33337C13.3 0.733374 12.4 0.333374 11.5 0.333374C9.4 0.333374 7.8 2.33337 8.3 4.33337C5.6 4.23337 3.2 2.93337 1.5 0.933374C0.6 2.43337 1.1 4.33337 2.5 5.33337C2 5.33337 1.5 5.13337 1 4.93337C1 6.43337 2.1 7.83337 3.6 8.23337C3.1 8.33337 2.6 8.43337 2.1 8.33337C2.5 9.63337 3.7 10.6334 5.2 10.6334C4 11.5334 2.2 12.0334 0.5 11.8334C2 12.7334 3.7 13.3334 5.5 13.3334C11.6 13.3334 15 8.23337 14.8 3.53337C15.5 3.13337 16.1 2.53337 16.5 1.83337Z" fill="white"/>
</svg>
